<svg xmlns="http://www.w3.org/2000/svg" xmlns:xlink="http://www.w3.org/1999/xlink" style="display:none" aria-hidden="true">
  <symbol id="close" viewBox="0 0 24 24">
<path d="M2.50734 24C1.87002 24 1.2327 23.7653 0.72956 23.2623C-0.243187 22.2899 -0.243187 20.6804 0.72956 19.708L19.7149 0.729305C20.6876 -0.243102 22.2977 -0.243102 23.2704 0.729305C24.2432 1.70171 24.2432 3.31121 23.2704 4.28362L4.28511 23.2623C3.81551 23.7653 3.14465 24 2.50734 24Z" fill="currentColor"/>
    <path d="M21.4927 24C20.8553 24 20.218 23.7653 19.7149 23.2623L0.72956 4.28362C-0.243187 3.31121 -0.243187 1.70171 0.72956 0.729305C1.70231 -0.243102 3.31237 -0.243102 4.28511 0.729305L23.2704 19.708C24.2432 20.6804 24.2432 22.2899 23.2704 23.2623C22.7673 23.7653 22.13 24 21.4927 24Z" fill="currentColor"/>
  </symbol>
  <symbol id="qr" viewBox="0 0 100 100">
<svg xmlns="http://www.w3.org/2000/svg" xmlns:xlink="http://www.w3.org/1999/xlink" version="1.1" width="100" height="100" viewBox="0 0 2000 2000" x="0" y="0" shape-rendering="crispEdges"><defs/><rect x="0" y="0" width="2000" height="2000" fill="#ffffff"/><svg viewBox="0 0 4 4" x="840" y="200" width="64" height="64" shape-rendering="auto"><path fill="#000000" d="M0,2A2,2,0,0,0,2,4H2A2,2,0,0,0,2,0H2A2,2,0,0,0,0,2Z"/></svg><svg viewBox="0 0 4 4" x="1160" y="200" width="64" height="64" shape-rendering="auto"><path fill="#000000" d="M0,2A2,2,0,0,0,2,4H2A2,2,0,0,0,2,0H2A2,2,0,0,0,0,2Z"/></svg><svg viewBox="0 0 4 4" x="776" y="264" width="64" height="64" shape-rendering="auto"><path fill="#000000" d="M0,2A2,2,0,0,0,2,4H2A2,2,0,0,0,2,0H2A2,2,0,0,0,0,2Z"/></svg><svg viewBox="0 0 4 4" x="1096" y="264" width="64" height="64" shape-rendering="auto"><path fill="#000000" d="M4,4V2A2,2,0,0,0,0,2H0V4Z"/></svg><svg viewBox="0 0 4 4" x="1160" y="264" width="64" height="64" shape-rendering="auto"><path fill="#000000" d="M0,2V4H2A2,2,0,0,1,0,2Z"/></svg><svg viewBox="0 0 4 4" x="712" y="328" width="64" height="64" shape-rendering="auto"><path fill="#000000" d="M0,2A2,2,0,0,0,2,4H2A2,2,0,0,0,2,0H2A2,2,0,0,0,0,2Z"/></svg><svg viewBox="0 0 4 4" x="904" y="328" width="64" height="64" shape-rendering="auto"><path fill="#000000" d="M0,2A2,2,0,0,0,2,4H2A2,2,0,0,0,2,0H2A2,2,0,0,0,0,2Z"/></svg><svg viewBox="0 0 4 4" x="1096" y="328" width="64" height="64" shape-rendering="auto"><path fill="#000000" d="M2,4H4V0H0V2A2,2,0,0,0,2,4Z"/></svg><svg viewBox="0 0 4 4" x="1160" y="328" width="64" height="64" shape-rendering="auto"><rect fill="#000000" width="4" height="4"/></svg><svg viewBox="0 0 4 4" x="1224" y="328" width="64" height="64" shape-rendering="auto"><path fill="#000000" d="M4,2V4H0V0H2A2,2,0,0,1,4,2Z"/></svg><svg viewBox="0 0 4 4" x="776" y="392" width="64" height="64" shape-rendering="auto"><path fill="#000000" d="M4,4V2A2,2,0,0,0,0,2H0V4Z"/></svg><svg viewBox="0 0 4 4" x="968" y="392" width="64" height="64" shape-rendering="auto"><path fill="#000000" d="M4,4V2A2,2,0,0,0,0,2H0V4Z"/></svg><svg viewBox="0 0 4 4" x="1096" y="392" width="64" height="64" shape-rendering="auto"><path fill="#000000" d="M4,2V0H2A2,2,0,0,1,4,2Z"/></svg><svg viewBox="0 0 4 4" x="1160" y="392" width="64" height="64" shape-rendering="auto"><path fill="#000000" d="M2,4H4V0H0V2A2,2,0,0,0,2,4Z"/></svg><svg viewBox="0 0 4 4" x="1224" y="392" width="64" height="64" shape-rendering="auto"><path fill="#000000" d="M2,4H0V0H4V2A2,2,0,0,1,2,4Z"/></svg><svg viewBox="0 0 4 4" x="776" y="456" width="64" height="64" shape-rendering="auto"><path fill="#000000" d="M0,0V2A2,2,0,0,0,4,2H4V0Z"/></svg><svg viewBox="0 0 4 4" x="904" y="456" width="64" height="64" shape-rendering="auto"><path fill="#000000" d="M2,4H4V2A2,2,0,0,1,2,4Z"/></svg><svg viewBox="0 0 4 4" x="968" y="456" width="64" height="64" shape-rendering="auto"><rect fill="#000000" width="4" height="4"/></svg><svg viewBox="0 0 4 4" x="1096" y="456" width="64" height="64" shape-rendering="auto"><path fill="#000000" d="M4,4V2A2,2,0,0,0,0,2H0V4Z"/></svg><svg viewBox="0 0 4 4" x="1160" y="456" width="64" height="64" shape-rendering="auto"><path fill="#000000" d="M0,2V4H2A2,2,0,0,1,0,2Z"/></svg><svg viewBox="0 0 4 4" x="840" y="520" width="64" height="64" shape-rendering="auto"><path fill="#000000" d="M0,2V4H4V0H2A2,2,0,0,0,0,2Z"/></svg><svg viewBox="0 0 4 4" x="904" y="520" width="64" height="64" shape-rendering="auto"><rect fill="#000000" width="4" height="4"/></svg><svg viewBox="0 0 4 4" x="968" y="520" width="64" height="64" shape-rendering="auto"><rect fill="#000000" width="4" height="4"/></svg><svg viewBox="0 0 4 4" x="1096" y="520" width="64" height="64" shape-rendering="auto"><rect fill="#000000" width="4" height="4"/></svg><svg viewBox="0 0 4 4" x="1160" y="520" width="64" height="64" shape-rendering="auto"><path fill="#000000" d="M0,4H2A2,2,0,0,0,2,0H0Z"/></svg><svg viewBox="0 0 4 4" x="712" y="584" width="64" height="64" shape-rendering="auto"><path fill="#000000" d="M4,4V2A2,2,0,0,0,0,2H0V4Z"/></svg><svg viewBox="0 0 4 4" x="840" y="584" width="64" height="64" shape-rendering="auto"><path fill="#000000" d="M0,0V2A2,2,0,0,0,4,2H4V0Z"/></svg><svg viewBox="0 0 4 4" x="904" y="584" width="64" height="64" shape-rendering="auto"><path fill="#000000" d="M0,2V0H2A2,2,0,0,0,0,2Z"/></svg><svg viewBox="0 0 4 4" x="904" y="584" width="64" height="64" shape-rendering="auto"><path fill="#000000" d="M4,2V0H2A2,2,0,0,1,4,2Z"/></svg><svg viewBox="0 0 4 4" x="968" y="584" width="64" height="64" shape-rendering="auto"><path fill="#000000" d="M0,0V2A2,2,0,0,0,4,2H4V0Z"/></svg><svg viewBox="0 0 4 4" x="1096" y="584" width="64" height="64" shape-rendering="auto"><path fill="#000000" d="M0,0V2A2,2,0,0,0,4,2H4V0Z"/></svg><svg viewBox="0 0 4 4" x="1160" y="584" width="64" height="64" shape-rendering="auto"><path fill="#000000" d="M0,2V0H2A2,2,0,0,0,0,2Z"/></svg><svg viewBox="0 0 4 4" x="1224" y="584" width="64" height="64" shape-rendering="auto"><path fill="#000000" d="M4,4V2A2,2,0,0,0,0,2H0V4Z"/></svg><svg viewBox="0 0 4 4" x="648" y="648" width="64" height="64" shape-rendering="auto"><path fill="#000000" d="M2,4H4V2A2,2,0,0,1,2,4Z"/></svg><svg viewBox="0 0 4 4" x="712" y="648" width="64" height="64" shape-rendering="auto"><rect fill="#000000" width="4" height="4"/></svg><svg viewBox="0 0 4 4" x="904" y="648" width="64" height="64" shape-rendering="auto"><path fill="#000000" d="M0,2A2,2,0,0,0,2,4H2A2,2,0,0,0,2,0H2A2,2,0,0,0,0,2Z"/></svg><svg viewBox="0 0 4 4" x="968" y="648" width="64" height="64" shape-rendering="auto"><path fill="#000000" d="M2,4H4V2A2,2,0,0,1,2,4Z"/></svg><svg viewBox="0 0 4 4" x="1032" y="648" width="64" height="64" shape-rendering="auto"><path fill="#000000" d="M4,4V2A2,2,0,0,0,0,2H0V4Z"/></svg><svg viewBox="0 0 4 4" x="1224" y="648" width="64" height="64" shape-rendering="auto"><rect fill="#000000" width="4" height="4"/></svg><svg viewBox="0 0 4 4" x="1288" y="648" width="64" height="64" shape-rendering="auto"><path fill="#000000" d="M0,2V4H2A2,2,0,0,1,0,2Z"/></svg><svg viewBox="0 0 4 4" x="200" y="712" width="64" height="64" shape-rendering="auto"><path fill="#000000" d="M4,0H2A2,2,0,0,0,2,4H4Z"/></svg><svg viewBox="0 0 4 4" x="264" y="712" width="64" height="64" shape-rendering="auto"><rect fill="#000000" width="4" height="4"/></svg><svg viewBox="0 0 4 4" x="328" y="712" width="64" height="64" shape-rendering="auto"><path fill="#000000" d="M4,2V4H0V0H2A2,2,0,0,1,4,2Z"/></svg><svg viewBox="0 0 4 4" x="456" y="712" width="64" height="64" shape-rendering="auto"><path fill="#000000" d="M4,0H2A2,2,0,0,0,2,4H4Z"/></svg><svg viewBox="0 0 4 4" x="520" y="712" width="64" height="64" shape-rendering="auto"><rect fill="#000000" width="4" height="4"/></svg><svg viewBox="0 0 4 4" x="584" y="712" width="64" height="64" shape-rendering="auto"><rect fill="#000000" width="4" height="4"/></svg><svg viewBox="0 0 4 4" x="648" y="712" width="64" height="64" shape-rendering="auto"><rect fill="#000000" width="4" height="4"/></svg><svg viewBox="0 0 4 4" x="712" y="712" width="64" height="64" shape-rendering="auto"><rect fill="#000000" width="4" height="4"/></svg><svg viewBox="0 0 4 4" x="776" y="712" width="64" height="64" shape-rendering="auto"><path fill="#000000" d="M0,2V4H2A2,2,0,0,1,0,2Z"/></svg><svg viewBox="0 0 4 4" x="904" y="712" width="64" height="64" shape-rendering="auto"><path fill="#000000" d="M2,4H4V2A2,2,0,0,1,2,4Z"/></svg><svg viewBox="0 0 4 4" x="968" y="712" width="64" height="64" shape-rendering="auto"><path fill="#000000" d="M0,2V4H4V0H2A2,2,0,0,0,0,2Z"/></svg><svg viewBox="0 0 4 4" x="1032" y="712" width="64" height="64" shape-rendering="auto"><rect fill="#000000" width="4" height="4"/></svg><svg viewBox="0 0 4 4" x="1096" y="712" width="64" height="64" shape-rendering="auto"><path fill="#000000" d="M0,2V4H2A2,2,0,0,1,0,2Z"/></svg><svg viewBox="0 0 4 4" x="1160" y="712" width="64" height="64" shape-rendering="auto"><path fill="#000000" d="M2,4H4V2A2,2,0,0,1,2,4Z"/></svg><svg viewBox="0 0 4 4" x="1224" y="712" width="64" height="64" shape-rendering="auto"><rect fill="#000000" width="4" height="4"/></svg><svg viewBox="0 0 4 4" x="1288" y="712" width="64" height="64" shape-rendering="auto"><rect fill="#000000" width="4" height="4"/></svg><svg viewBox="0 0 4 4" x="1352" y="712" width="64" height="64" shape-rendering="auto"><path fill="#000000" d="M4,2V4H0V0H2A2,2,0,0,1,4,2Z"/></svg><svg viewBox="0 0 4 4" x="1608" y="712" width="64" height="64" shape-rendering="auto"><path fill="#000000" d="M0,2A2,2,0,0,0,2,4H2A2,2,0,0,0,2,0H2A2,2,0,0,0,0,2Z"/></svg><svg viewBox="0 0 4 4" x="200" y="776" width="64" height="64" shape-rendering="auto"><path fill="#000000" d="M4,2V0H2A2,2,0,0,1,4,2Z"/></svg><svg viewBox="0 0 4 4" x="264" y="776" width="64" height="64" shape-rendering="auto"><path fill="#000000" d="M2,4H4V0H0V2A2,2,0,0,0,2,4Z"/></svg><svg viewBox="0 0 4 4" x="328" y="776" width="64" height="64" shape-rendering="auto"><path fill="#000000" d="M2,4H0V0H4V2A2,2,0,0,1,2,4Z"/></svg><svg viewBox="0 0 4 4" x="456" y="776" width="64" height="64" shape-rendering="auto"><path fill="#000000" d="M4,2V0H2A2,2,0,0,1,4,2Z"/></svg><svg viewBox="0 0 4 4" x="520" y="776" width="64" height="64" shape-rendering="auto"><path fill="#000000" d="M0,0V2A2,2,0,0,0,4,2H4V0Z"/></svg><svg viewBox="0 0 4 4" x="584" y="776" width="64" height="64" shape-rendering="auto"><path fill="#000000" d="M0,2V0H2A2,2,0,0,0,0,2Z"/></svg><svg viewBox="0 0 4 4" x="584" y="776" width="64" height="64" shape-rendering="auto"><path fill="#000000" d="M4,2V0H2A2,2,0,0,1,4,2Z"/></svg><svg viewBox="0 0 4 4" x="648" y="776" width="64" height="64" shape-rendering="auto"><path fill="#000000" d="M2,4H4V0H0V2A2,2,0,0,0,2,4Z"/></svg><svg viewBox="0 0 4 4" x="712" y="776" width="64" height="64" shape-rendering="auto"><rect fill="#000000" width="4" height="4"/></svg><svg viewBox="0 0 4 4" x="776" y="776" width="64" height="64" shape-rendering="auto"><path fill="#000000" d="M0,4H2A2,2,0,0,0,2,0H0Z"/></svg><svg viewBox="0 0 4 4" x="840" y="776" width="64" height="64" shape-rendering="auto"><path fill="#000000" d="M2,4H4V2A2,2,0,0,1,2,4Z"/></svg><svg viewBox="0 0 4 4" x="904" y="776" width="64" height="64" shape-rendering="auto"><path fill="#000000" d="M0,2V4H4V0H2A2,2,0,0,0,0,2Z"/></svg><svg viewBox="0 0 4 4" x="968" y="776" width="64" height="64" shape-rendering="auto"><rect fill="#000000" width="4" height="4"/></svg><svg viewBox="0 0 4 4" x="1032" y="776" width="64" height="64" shape-rendering="auto"><rect fill="#000000" width="4" height="4"/></svg><svg viewBox="0 0 4 4" x="1096" y="776" width="64" height="64" shape-rendering="auto"><rect fill="#000000" width="4" height="4"/></svg><svg viewBox="0 0 4 4" x="1160" y="776" width="64" height="64" shape-rendering="auto"><rect fill="#000000" width="4" height="4"/></svg><svg viewBox="0 0 4 4" x="1224" y="776" width="64" height="64" shape-rendering="auto"><rect fill="#000000" width="4" height="4"/></svg><svg viewBox="0 0 4 4" x="1288" y="776" width="64" height="64" shape-rendering="auto"><path fill="#000000" d="M0,2V0H2A2,2,0,0,0,0,2Z"/></svg><svg viewBox="0 0 4 4" x="1288" y="776" width="64" height="64" shape-rendering="auto"><path fill="#000000" d="M4,2V0H2A2,2,0,0,1,4,2Z"/></svg><svg viewBox="0 0 4 4" x="1288" y="776" width="64" height="64" shape-rendering="auto"><path fill="#000000" d="M2,4H4V2A2,2,0,0,1,2,4Z"/></svg><svg viewBox="0 0 4 4" x="1288" y="776" width="64" height="64" shape-rendering="auto"><path fill="#000000" d="M0,2V4H2A2,2,0,0,1,0,2Z"/></svg><svg viewBox="0 0 4 4" x="1352" y="776" width="64" height="64" shape-rendering="auto"><rect fill="#000000" width="4" height="4"/></svg><svg viewBox="0 0 4 4" x="1480" y="776" width="64" height="64" shape-rendering="auto"><path fill="#000000" d="M0,2A2,2,0,0,0,2,4H2A2,2,0,0,0,2,0H2A2,2,0,0,0,0,2Z"/></svg><svg viewBox="0 0 4 4" x="1672" y="776" width="64" height="64" shape-rendering="auto"><path fill="#000000" d="M0,2A2,2,0,0,0,2,4H2A2,2,0,0,0,2,0H2A2,2,0,0,0,0,2Z"/></svg><svg viewBox="0 0 4 4" x="200" y="840" width="64" height="64" shape-rendering="auto"><path fill="#000000" d="M4,4V2A2,2,0,0,0,0,2H0V4Z"/></svg><svg viewBox="0 0 4 4" x="264" y="840" width="64" height="64" shape-rendering="auto"><path fill="#000000" d="M0,2V4H2A2,2,0,0,1,0,2Z"/></svg><svg viewBox="0 0 4 4" x="392" y="840" width="64" height="64" shape-rendering="auto"><path fill="#000000" d="M0,2V4H4V0H2A2,2,0,0,0,0,2Z"/></svg><svg viewBox="0 0 4 4" x="456" y="840" width="64" height="64" shape-rendering="auto"><path fill="#000000" d="M0,4H2A2,2,0,0,0,2,0H0Z"/></svg><svg viewBox="0 0 4 4" x="584" y="840" width="64" height="64" shape-rendering="auto"><path fill="#000000" d="M0,2A2,2,0,0,0,2,4H2A2,2,0,0,0,2,0H2A2,2,0,0,0,0,2Z"/></svg><svg viewBox="0 0 4 4" x="776" y="840" width="64" height="64" shape-rendering="auto"><path fill="#000000" d="M2,4H4V2A2,2,0,0,1,2,4Z"/></svg><svg viewBox="0 0 4 4" x="840" y="840" width="64" height="64" shape-rendering="auto"><path fill="#000000" d="M0,2V4H4V0H2A2,2,0,0,0,0,2Z"/></svg><svg viewBox="0 0 4 4" x="904" y="840" width="64" height="64" shape-rendering="auto"><rect fill="#000000" width="4" height="4"/></svg><svg viewBox="0 0 4 4" x="968" y="840" width="64" height="64" shape-rendering="auto"><rect fill="#000000" width="4" height="4"/></svg><svg viewBox="0 0 4 4" x="1032" y="840" width="64" height="64" shape-rendering="auto"><rect fill="#000000" width="4" height="4"/></svg><svg viewBox="0 0 4 4" x="1096" y="840" width="64" height="64" shape-rendering="auto"><path fill="#000000" d="M0,2V0H2A2,2,0,0,0,0,2Z"/></svg><svg viewBox="0 0 4 4" x="1160" y="840" width="64" height="64" shape-rendering="auto"><path fill="#000000" d="M4,2V0H2A2,2,0,0,1,4,2Z"/></svg><svg viewBox="0 0 4 4" x="1224" y="840" width="64" height="64" shape-rendering="auto"><rect fill="#000000" width="4" height="4"/></svg><svg viewBox="0 0 4 4" x="1288" y="840" width="64" height="64" shape-rendering="auto"><rect fill="#000000" width="4" height="4"/></svg><svg viewBox="0 0 4 4" x="1352" y="840" width="64" height="64" shape-rendering="auto"><rect fill="#000000" width="4" height="4"/></svg><svg viewBox="0 0 4 4" x="1416" y="840" width="64" height="64" shape-rendering="auto"><path fill="#000000" d="M0,2V4H2A2,2,0,0,1,0,2Z"/></svg><svg viewBox="0 0 4 4" x="1544" y="840" width="64" height="64" shape-rendering="auto"><path fill="#000000" d="M0,2A2,2,0,0,0,2,4H2A2,2,0,0,0,2,0H2A2,2,0,0,0,0,2Z"/></svg><svg viewBox="0 0 4 4" x="200" y="904" width="64" height="64" shape-rendering="auto"><path fill="#000000" d="M2,4H4V0H0V2A2,2,0,0,0,2,4Z"/></svg><svg viewBox="0 0 4 4" x="264" y="904" width="64" height="64" shape-rendering="auto"><path fill="#000000" d="M4,2V4H0V0H2A2,2,0,0,1,4,2Z"/></svg><svg viewBox="0 0 4 4" x="392" y="904" width="64" height="64" shape-rendering="auto"><path fill="#000000" d="M0,0V2A2,2,0,0,0,4,2H4V0Z"/></svg><svg viewBox="0 0 4 4" x="456" y="904" width="64" height="64" shape-rendering="auto"><path fill="#000000" d="M0,2V0H2A2,2,0,0,0,0,2Z"/></svg><svg viewBox="0 0 4 4" x="520" y="904" width="64" height="64" shape-rendering="auto"><path fill="#000000" d="M0,2A2,2,0,0,0,2,4H2A2,2,0,0,0,2,0H2A2,2,0,0,0,0,2Z"/></svg><svg viewBox="0 0 4 4" x="584" y="904" width="64" height="64" shape-rendering="auto"><path fill="#000000" d="M2,4H4V2A2,2,0,0,1,2,4Z"/></svg><svg viewBox="0 0 4 4" x="648" y="904" width="64" height="64" shape-rendering="auto"><path fill="#000000" d="M4,4V2A2,2,0,0,0,0,2H0V4Z"/></svg><svg viewBox="0 0 4 4" x="776" y="904" width="64" height="64" shape-rendering="auto"><path fill="#000000" d="M4,0H2A2,2,0,0,0,2,4H4Z"/></svg><svg viewBox="0 0 4 4" x="840" y="904" width="64" height="64" shape-rendering="auto"><rect fill="#000000" width="4" height="4"/></svg><svg viewBox="0 0 4 4" x="904" y="904" width="64" height="64" shape-rendering="auto"><path fill="#000000" d="M0,2V0H2A2,2,0,0,0,0,2Z"/></svg><svg viewBox="0 0 4 4" x="904" y="904" width="64" height="64" shape-rendering="auto"><path fill="#000000" d="M4,2V0H2A2,2,0,0,1,4,2Z"/></svg><svg viewBox="0 0 4 4" x="904" y="904" width="64" height="64" shape-rendering="auto"><path fill="#000000" d="M0,2V4H2A2,2,0,0,1,0,2Z"/></svg><svg viewBox="0 0 4 4" x="968" y="904" width="64" height="64" shape-rendering="auto"><path fill="#000000" d="M2,4H4V0H0V2A2,2,0,0,0,2,4Z"/></svg><svg viewBox="0 0 4 4" x="1032" y="904" width="64" height="64" shape-rendering="auto"><rect fill="#000000" width="4" height="4"/></svg><svg viewBox="0 0 4 4" x="1096" y="904" width="64" height="64" shape-rendering="auto"><path fill="#000000" d="M0,2V4H2A2,2,0,0,1,0,2Z"/></svg><svg viewBox="0 0 4 4" x="1224" y="904" width="64" height="64" shape-rendering="auto"><rect fill="#000000" width="4" height="4"/></svg><svg viewBox="0 0 4 4" x="1288" y="904" width="64" height="64" shape-rendering="auto"><path fill="#000000" d="M0,2V0H2A2,2,0,0,0,0,2Z"/></svg><svg viewBox="0 0 4 4" x="1288" y="904" width="64" height="64" shape-rendering="auto"><path fill="#000000" d="M4,2V0H2A2,2,0,0,1,4,2Z"/></svg><svg viewBox="0 0 4 4" x="1352" y="904" width="64" height="64" shape-rendering="auto"><rect fill="#000000" width="4" height="4"/></svg><svg viewBox="0 0 4 4" x="1416" y="904" width="64" height="64" shape-rendering="auto"><path fill="#000000" d="M4,2V4H0V0H2A2,2,0,0,1,4,2Z"/></svg><svg viewBox="0 0 4 4" x="1608" y="904" width="64" height="64" shape-rendering="auto"><path fill="#000000" d="M2,4H4V2A2,2,0,0,1,2,4Z"/></svg><svg viewBox="0 0 4 4" x="1672" y="904" width="64" height="64" shape-rendering="auto"><path fill="#000000" d="M0,2V4H4V0H2A2,2,0,0,0,0,2Z"/></svg><svg viewBox="0 0 4 4" x="1736" y="904" width="64" height="64" shape-rendering="auto"><path fill="#000000" d="M4,2V4H0V0H2A2,2,0,0,1,4,2Z"/></svg><svg viewBox="0 0 4 4" x="200" y="968" width="64" height="64" shape-rendering="auto"><path fill="#000000" d="M4,2V0H2A2,2,0,0,1,4,2Z"/></svg><svg viewBox="0 0 4 4" x="264" y="968" width="64" height="64" shape-rendering="auto"><path fill="#000000" d="M0,0V2A2,2,0,0,0,4,2H4V0Z"/></svg><svg viewBox="0 0 4 4" x="392" y="968" width="64" height="64" shape-rendering="auto"><path fill="#000000" d="M2,4H4V2A2,2,0,0,1,2,4Z"/></svg><svg viewBox="0 0 4 4" x="456" y="968" width="64" height="64" shape-rendering="auto"><path fill="#000000" d="M4,4V2A2,2,0,0,0,0,2H0V4Z"/></svg><svg viewBox="0 0 4 4" x="584" y="968" width="64" height="64" shape-rendering="auto"><path fill="#000000" d="M4,0H2A2,2,0,0,0,2,4H4Z"/></svg><svg viewBox="0 0 4 4" x="648" y="968" width="64" height="64" shape-rendering="auto"><path fill="#000000" d="M2,4H0V0H4V2A2,2,0,0,1,2,4Z"/></svg><svg viewBox="0 0 4 4" x="776" y="968" width="64" height="64" shape-rendering="auto"><path fill="#000000" d="M4,2V0H2A2,2,0,0,1,4,2Z"/></svg><svg viewBox="0 0 4 4" x="840" y="968" width="64" height="64" shape-rendering="auto"><rect fill="#000000" width="4" height="4"/></svg><svg viewBox="0 0 4 4" x="904" y="968" width="64" height="64" shape-rendering="auto"><path fill="#000000" d="M4,2V4H0V0H2A2,2,0,0,1,4,2Z"/></svg><svg viewBox="0 0 4 4" x="968" y="968" width="64" height="64" shape-rendering="auto"><path fill="#000000" d="M4,2V0H2A2,2,0,0,1,4,2Z"/></svg><svg viewBox="0 0 4 4" x="1032" y="968" width="64" height="64" shape-rendering="auto"><rect fill="#000000" width="4" height="4"/></svg><svg viewBox="0 0 4 4" x="1096" y="968" width="64" height="64" shape-rendering="auto"><path fill="#000000" d="M4,2V4H0V0H2A2,2,0,0,1,4,2Z"/></svg><svg viewBox="0 0 4 4" x="1224" y="968" width="64" height="64" shape-rendering="auto"><rect fill="#000000" width="4" height="4"/></svg><svg viewBox="0 0 4 4" x="1352" y="968" width="64" height="64" shape-rendering="auto"><path fill="#000000" d="M2,4H4V0H0V2A2,2,0,0,0,2,4Z"/></svg><svg viewBox="0 0 4 4" x="1416" y="968" width="64" height="64" shape-rendering="auto"><path fill="#000000" d="M2,4H0V0H4V2A2,2,0,0,1,2,4Z"/></svg><svg viewBox="0 0 4 4" x="1608" y="968" width="64" height="64" shape-rendering="auto"><path fill="#000000" d="M4,0H2A2,2,0,0,0,2,4H4Z"/></svg><svg viewBox="0 0 4 4" x="1672" y="968" width="64" height="64" shape-rendering="auto"><rect fill="#000000" width="4" height="4"/></svg><svg viewBox="0 0 4 4" x="1736" y="968" width="64" height="64" shape-rendering="auto"><rect fill="#000000" width="4" height="4"/></svg><svg viewBox="0 0 4 4" x="328" y="1032" width="64" height="64" shape-rendering="auto"><path fill="#000000" d="M4,0H2A2,2,0,0,0,2,4H4Z"/></svg><svg viewBox="0 0 4 4" x="392" y="1032" width="64" height="64" shape-rendering="auto"><rect fill="#000000" width="4" height="4"/></svg><svg viewBox="0 0 4 4" x="456" y="1032" width="64" height="64" shape-rendering="auto"><path fill="#000000" d="M2,4H0V0H4V2A2,2,0,0,1,2,4Z"/></svg><svg viewBox="0 0 4 4" x="712" y="1032" width="64" height="64" shape-rendering="auto"><path fill="#000000" d="M4,4V2A2,2,0,0,0,0,2H0V4Z"/></svg><svg viewBox="0 0 4 4" x="776" y="1032" width="64" height="64" shape-rendering="auto"><path fill="#000000" d="M0,2V4H2A2,2,0,0,1,0,2Z"/></svg><svg viewBox="0 0 4 4" x="840" y="1032" width="64" height="64" shape-rendering="auto"><path fill="#000000" d="M2,4H4V0H0V2A2,2,0,0,0,2,4Z"/></svg><svg viewBox="0 0 4 4" x="904" y="1032" width="64" height="64" shape-rendering="auto"><path fill="#000000" d="M2,4H0V0H4V2A2,2,0,0,1,2,4Z"/></svg><svg viewBox="0 0 4 4" x="1032" y="1032" width="64" height="64" shape-rendering="auto"><path fill="#000000" d="M2,4H4V0H0V2A2,2,0,0,0,2,4Z"/></svg><svg viewBox="0 0 4 4" x="1096" y="1032" width="64" height="64" shape-rendering="auto"><path fill="#000000" d="M2,4H0V0H4V2A2,2,0,0,1,2,4Z"/></svg><svg viewBox="0 0 4 4" x="1160" y="1032" width="64" height="64" shape-rendering="auto"><path fill="#000000" d="M2,4H4V2A2,2,0,0,1,2,4Z"/></svg><svg viewBox="0 0 4 4" x="1224" y="1032" width="64" height="64" shape-rendering="auto"><rect fill="#000000" width="4" height="4"/></svg><svg viewBox="0 0 4 4" x="1288" y="1032" width="64" height="64" shape-rendering="auto"><path fill="#000000" d="M0,2V4H2A2,2,0,0,1,0,2Z"/></svg><svg viewBox="0 0 4 4" x="1480" y="1032" width="64" height="64" shape-rendering="auto"><path fill="#000000" d="M0,2A2,2,0,0,0,2,4H2A2,2,0,0,0,2,0H2A2,2,0,0,0,0,2Z"/></svg><svg viewBox="0 0 4 4" x="1608" y="1032" width="64" height="64" shape-rendering="auto"><path fill="#000000" d="M4,2V0H2A2,2,0,0,1,4,2Z"/></svg><svg viewBox="0 0 4 4" x="1672" y="1032" width="64" height="64" shape-rendering="auto"><rect fill="#000000" width="4" height="4"/></svg><svg viewBox="0 0 4 4" x="1736" y="1032" width="64" height="64" shape-rendering="auto"><rect fill="#000000" width="4" height="4"/></svg><svg viewBox="0 0 4 4" x="200" y="1096" width="64" height="64" shape-rendering="auto"><path fill="#000000" d="M0,2A2,2,0,0,0,2,4H2A2,2,0,0,0,2,0H2A2,2,0,0,0,0,2Z"/></svg><svg viewBox="0 0 4 4" x="328" y="1096" width="64" height="64" shape-rendering="auto"><path fill="#000000" d="M4,2V0H2A2,2,0,0,1,4,2Z"/></svg><svg viewBox="0 0 4 4" x="392" y="1096" width="64" height="64" shape-rendering="auto"><path fill="#000000" d="M0,0V2A2,2,0,0,0,4,2H4V0Z"/></svg><svg viewBox="0 0 4 4" x="456" y="1096" width="64" height="64" shape-rendering="auto"><path fill="#000000" d="M0,2V0H2A2,2,0,0,0,0,2Z"/></svg><svg viewBox="0 0 4 4" x="520" y="1096" width="64" height="64" shape-rendering="auto"><path fill="#000000" d="M4,0H2A2,2,0,0,0,2,4H4Z"/></svg><svg viewBox="0 0 4 4" x="584" y="1096" width="64" height="64" shape-rendering="auto"><path fill="#000000" d="M0,4H2A2,2,0,0,0,2,0H0Z"/></svg><svg viewBox="0 0 4 4" x="712" y="1096" width="64" height="64" shape-rendering="auto"><path fill="#000000" d="M2,4H4V0H0V2A2,2,0,0,0,2,4Z"/></svg><svg viewBox="0 0 4 4" x="776" y="1096" width="64" height="64" shape-rendering="auto"><path fill="#000000" d="M4,2V4H0V0H2A2,2,0,0,1,4,2Z"/></svg><svg viewBox="0 0 4 4" x="1160" y="1096" width="64" height="64" shape-rendering="auto"><path fill="#000000" d="M4,0H2A2,2,0,0,0,2,4H4Z"/></svg><svg viewBox="0 0 4 4" x="1224" y="1096" width="64" height="64" shape-rendering="auto"><rect fill="#000000" width="4" height="4"/></svg><svg viewBox="0 0 4 4" x="1288" y="1096" width="64" height="64" shape-rendering="auto"><rect fill="#000000" width="4" height="4"/></svg><svg viewBox="0 0 4 4" x="1352" y="1096" width="64" height="64" shape-rendering="auto"><path fill="#000000" d="M4,2V4H0V0H2A2,2,0,0,1,4,2Z"/></svg><svg viewBox="0 0 4 4" x="1416" y="1096" width="64" height="64" shape-rendering="auto"><path fill="#000000" d="M0,2V4H2A2,2,0,0,1,0,2Z"/></svg><svg viewBox="0 0 4 4" x="1544" y="1096" width="64" height="64" shape-rendering="auto"><path fill="#000000" d="M0,2A2,2,0,0,0,2,4H2A2,2,0,0,0,2,0H2A2,2,0,0,0,0,2Z"/></svg><svg viewBox="0 0 4 4" x="1672" y="1096" width="64" height="64" shape-rendering="auto"><path fill="#000000" d="M2,4H4V0H0V2A2,2,0,0,0,2,4Z"/></svg><svg viewBox="0 0 4 4" x="1736" y="1096" width="64" height="64" shape-rendering="auto"><path fill="#000000" d="M2,4H0V0H4V2A2,2,0,0,1,2,4Z"/></svg><svg viewBox="0 0 4 4" x="264" y="1160" width="64" height="64" shape-rendering="auto"><path fill="#000000" d="M4,0H2A2,2,0,0,0,2,4H4Z"/></svg><svg viewBox="0 0 4 4" x="328" y="1160" width="64" height="64" shape-rendering="auto"><path fill="#000000" d="M0,4H2A2,2,0,0,0,2,0H0Z"/></svg><svg viewBox="0 0 4 4" x="392" y="1160" width="64" height="64" shape-rendering="auto"><path fill="#000000" d="M2,4H4V2A2,2,0,0,1,2,4Z"/></svg><svg viewBox="0 0 4 4" x="456" y="1160" width="64" height="64" shape-rendering="auto"><path fill="#000000" d="M4,4V2A2,2,0,0,0,0,2H0V4Z"/></svg><svg viewBox="0 0 4 4" x="648" y="1160" width="64" height="64" shape-rendering="auto"><path fill="#000000" d="M0,2A2,2,0,0,0,2,4H2A2,2,0,0,0,2,0H2A2,2,0,0,0,0,2Z"/></svg><svg viewBox="0 0 4 4" x="712" y="1160" width="64" height="64" shape-rendering="auto"><path fill="#000000" d="M4,2V0H2A2,2,0,0,1,4,2Z"/></svg><svg viewBox="0 0 4 4" x="776" y="1160" width="64" height="64" shape-rendering="auto"><rect fill="#000000" width="4" height="4"/></svg><svg viewBox="0 0 4 4" x="840" y="1160" width="64" height="64" shape-rendering="auto"><path fill="#000000" d="M0,2V4H2A2,2,0,0,1,0,2Z"/></svg><svg viewBox="0 0 4 4" x="904" y="1160" width="64" height="64" shape-rendering="auto"><path fill="#000000" d="M0,2A2,2,0,0,0,2,4H2A2,2,0,0,0,2,0H2A2,2,0,0,0,0,2Z"/></svg><svg viewBox="0 0 4 4" x="1032" y="1160" width="64" height="64" shape-rendering="auto"><path fill="#000000" d="M4,0H2A2,2,0,0,0,2,4H4Z"/></svg><svg viewBox="0 0 4 4" x="1096" y="1160" width="64" height="64" shape-rendering="auto"><path fill="#000000" d="M0,4H2A2,2,0,0,0,2,0H0Z"/></svg><svg viewBox="0 0 4 4" x="1288" y="1160" width="64" height="64" shape-rendering="auto"><path fill="#000000" d="M4,2V0H2A2,2,0,0,1,4,2Z"/></svg><svg viewBox="0 0 4 4" x="1288" y="1160" width="64" height="64" shape-rendering="auto"><path fill="#000000" d="M2,4H4V2A2,2,0,0,1,2,4Z"/></svg><svg viewBox="0 0 4 4" x="1352" y="1160" width="64" height="64" shape-rendering="auto"><rect fill="#000000" width="4" height="4"/></svg><svg viewBox="0 0 4 4" x="1416" y="1160" width="64" height="64" shape-rendering="auto"><path fill="#000000" d="M4,2V4H0V0H2A2,2,0,0,1,4,2Z"/></svg><svg viewBox="0 0 4 4" x="1480" y="1160" width="64" height="64" shape-rendering="auto"><path fill="#000000" d="M0,2V4H2A2,2,0,0,1,0,2Z"/></svg><svg viewBox="0 0 4 4" x="200" y="1224" width="64" height="64" shape-rendering="auto"><path fill="#000000" d="M0,2A2,2,0,0,0,2,4H2A2,2,0,0,0,2,0H2A2,2,0,0,0,0,2Z"/></svg><svg viewBox="0 0 4 4" x="392" y="1224" width="64" height="64" shape-rendering="auto"><path fill="#000000" d="M4,0H2A2,2,0,0,0,2,4H4Z"/></svg><svg viewBox="0 0 4 4" x="456" y="1224" width="64" height="64" shape-rendering="auto"><path fill="#000000" d="M2,4H0V0H4V2A2,2,0,0,1,2,4Z"/></svg><svg viewBox="0 0 4 4" x="584" y="1224" width="64" height="64" shape-rendering="auto"><path fill="#000000" d="M0,2A2,2,0,0,0,2,4H2A2,2,0,0,0,2,0H2A2,2,0,0,0,0,2Z"/></svg><svg viewBox="0 0 4 4" x="712" y="1224" width="64" height="64" shape-rendering="auto"><path fill="#000000" d="M2,4H4V2A2,2,0,0,1,2,4Z"/></svg><svg viewBox="0 0 4 4" x="776" y="1224" width="64" height="64" shape-rendering="auto"><rect fill="#000000" width="4" height="4"/></svg><svg viewBox="0 0 4 4" x="840" y="1224" width="64" height="64" shape-rendering="auto"><path fill="#000000" d="M4,2V4H0V0H2A2,2,0,0,1,4,2Z"/></svg><svg viewBox="0 0 4 4" x="904" y="1224" width="64" height="64" shape-rendering="auto"><path fill="#000000" d="M2,4H4V2A2,2,0,0,1,2,4Z"/></svg><svg viewBox="0 0 4 4" x="904" y="1224" width="64" height="64" shape-rendering="auto"><path fill="#000000" d="M0,2V4H2A2,2,0,0,1,0,2Z"/></svg><svg viewBox="0 0 4 4" x="968" y="1224" width="64" height="64" shape-rendering="auto"><path fill="#000000" d="M4,4V2A2,2,0,0,0,0,2H0V4Z"/></svg><svg viewBox="0 0 4 4" x="1032" y="1224" width="64" height="64" shape-rendering="auto"><path fill="#000000" d="M0,2V4H2A2,2,0,0,1,0,2Z"/></svg><svg viewBox="0 0 4 4" x="1224" y="1224" width="64" height="64" shape-rendering="auto"><path fill="#000000" d="M0,2V4H4V0H2A2,2,0,0,0,0,2Z"/></svg><svg viewBox="0 0 4 4" x="1288" y="1224" width="64" height="64" shape-rendering="auto"><rect fill="#000000" width="4" height="4"/></svg><svg viewBox="0 0 4 4" x="1352" y="1224" width="64" height="64" shape-rendering="auto"><rect fill="#000000" width="4" height="4"/></svg><svg viewBox="0 0 4 4" x="1416" y="1224" width="64" height="64" shape-rendering="auto"><rect fill="#000000" width="4" height="4"/></svg><svg viewBox="0 0 4 4" x="1480" y="1224" width="64" height="64" shape-rendering="auto"><path fill="#000000" d="M4,2V4H0V0H2A2,2,0,0,1,4,2Z"/></svg><svg viewBox="0 0 4 4" x="1608" y="1224" width="64" height="64" shape-rendering="auto"><path fill="#000000" d="M0,2A2,2,0,0,0,2,4H2A2,2,0,0,0,2,0H2A2,2,0,0,0,0,2Z"/></svg><svg viewBox="0 0 4 4" x="1736" y="1224" width="64" height="64" shape-rendering="auto"><path fill="#000000" d="M0,2A2,2,0,0,0,2,4H2A2,2,0,0,0,2,0H2A2,2,0,0,0,0,2Z"/></svg><svg viewBox="0 0 4 4" x="712" y="1288" width="64" height="64" shape-rendering="auto"><path fill="#000000" d="M0,2V4H4V0H2A2,2,0,0,0,0,2Z"/></svg><svg viewBox="0 0 4 4" x="776" y="1288" width="64" height="64" shape-rendering="auto"><rect fill="#000000" width="4" height="4"/></svg><svg viewBox="0 0 4 4" x="840" y="1288" width="64" height="64" shape-rendering="auto"><rect fill="#000000" width="4" height="4"/></svg><svg viewBox="0 0 4 4" x="904" y="1288" width="64" height="64" shape-rendering="auto"><rect fill="#000000" width="4" height="4"/></svg><svg viewBox="0 0 4 4" x="968" y="1288" width="64" height="64" shape-rendering="auto"><rect fill="#000000" width="4" height="4"/></svg><svg viewBox="0 0 4 4" x="1032" y="1288" width="64" height="64" shape-rendering="auto"><path fill="#000000" d="M4,2V4H0V0H2A2,2,0,0,1,4,2Z"/></svg><svg viewBox="0 0 4 4" x="1160" y="1288" width="64" height="64" shape-rendering="auto"><path fill="#000000" d="M2,4H4V2A2,2,0,0,1,2,4Z"/></svg><svg viewBox="0 0 4 4" x="1224" y="1288" width="64" height="64" shape-rendering="auto"><rect fill="#000000" width="4" height="4"/></svg><svg viewBox="0 0 4 4" x="1288" y="1288" width="64" height="64" shape-rendering="auto"><path fill="#000000" d="M0,2V0H2A2,2,0,0,0,0,2Z"/></svg><svg viewBox="0 0 4 4" x="1416" y="1288" width="64" height="64" shape-rendering="auto"><path fill="#000000" d="M4,2V0H2A2,2,0,0,1,4,2Z"/></svg><svg viewBox="0 0 4 4" x="1480" y="1288" width="64" height="64" shape-rendering="auto"><rect fill="#000000" width="4" height="4"/></svg><svg viewBox="0 0 4 4" x="1544" y="1288" width="64" height="64" shape-rendering="auto"><path fill="#000000" d="M0,2V4H2A2,2,0,0,1,0,2Z"/></svg><svg viewBox="0 0 4 4" x="1672" y="1288" width="64" height="64" shape-rendering="auto"><path fill="#000000" d="M4,4V2A2,2,0,0,0,0,2H0V4Z"/></svg><svg viewBox="0 0 4 4" x="1736" y="1288" width="64" height="64" shape-rendering="auto"><path fill="#000000" d="M0,2V4H2A2,2,0,0,1,0,2Z"/></svg><svg viewBox="0 0 4 4" x="712" y="1352" width="64" height="64" shape-rendering="auto"><rect fill="#000000" width="4" height="4"/></svg><svg viewBox="0 0 4 4" x="776" y="1352" width="64" height="64" shape-rendering="auto"><rect fill="#000000" width="4" height="4"/></svg><svg viewBox="0 0 4 4" x="840" y="1352" width="64" height="64" shape-rendering="auto"><rect fill="#000000" width="4" height="4"/></svg><svg viewBox="0 0 4 4" x="904" y="1352" width="64" height="64" shape-rendering="auto"><rect fill="#000000" width="4" height="4"/></svg><svg viewBox="0 0 4 4" x="968" y="1352" width="64" height="64" shape-rendering="auto"><rect fill="#000000" width="4" height="4"/></svg><svg viewBox="0 0 4 4" x="1032" y="1352" width="64" height="64" shape-rendering="auto"><path fill="#000000" d="M2,4H0V0H4V2A2,2,0,0,1,2,4Z"/></svg><svg viewBox="0 0 4 4" x="1160" y="1352" width="64" height="64" shape-rendering="auto"><path fill="#000000" d="M4,0H2A2,2,0,0,0,2,4H4Z"/></svg><svg viewBox="0 0 4 4" x="1224" y="1352" width="64" height="64" shape-rendering="auto"><rect fill="#000000" width="4" height="4"/></svg><svg viewBox="0 0 4 4" x="1352" y="1352" width="64" height="64" shape-rendering="auto"><path fill="#000000" d="M0,2A2,2,0,0,0,2,4H2A2,2,0,0,0,2,0H2A2,2,0,0,0,0,2Z"/></svg><svg viewBox="0 0 4 4" x="1480" y="1352" width="64" height="64" shape-rendering="auto"><rect fill="#000000" width="4" height="4"/></svg><svg viewBox="0 0 4 4" x="1544" y="1352" width="64" height="64" shape-rendering="auto"><path fill="#000000" d="M4,2V4H0V0H2A2,2,0,0,1,4,2Z"/></svg><svg viewBox="0 0 4 4" x="1672" y="1352" width="64" height="64" shape-rendering="auto"><rect fill="#000000" width="4" height="4"/></svg><svg viewBox="0 0 4 4" x="1736" y="1352" width="64" height="64" shape-rendering="auto"><path fill="#000000" d="M4,2V4H0V0H2A2,2,0,0,1,4,2Z"/></svg><svg viewBox="0 0 4 4" x="712" y="1416" width="64" height="64" shape-rendering="auto"><rect fill="#000000" width="4" height="4"/></svg><svg viewBox="0 0 4 4" x="776" y="1416" width="64" height="64" shape-rendering="auto"><path fill="#000000" d="M0,2V0H2A2,2,0,0,0,0,2Z"/></svg><svg viewBox="0 0 4 4" x="776" y="1416" width="64" height="64" shape-rendering="auto"><path fill="#000000" d="M4,2V0H2A2,2,0,0,1,4,2Z"/></svg><svg viewBox="0 0 4 4" x="776" y="1416" width="64" height="64" shape-rendering="auto"><path fill="#000000" d="M2,4H4V2A2,2,0,0,1,2,4Z"/></svg><svg viewBox="0 0 4 4" x="776" y="1416" width="64" height="64" shape-rendering="auto"><path fill="#000000" d="M0,2V4H2A2,2,0,0,1,0,2Z"/></svg><svg viewBox="0 0 4 4" x="840" y="1416" width="64" height="64" shape-rendering="auto"><rect fill="#000000" width="4" height="4"/></svg><svg viewBox="0 0 4 4" x="904" y="1416" width="64" height="64" shape-rendering="auto"><path fill="#000000" d="M0,2V0H2A2,2,0,0,0,0,2Z"/></svg><svg viewBox="0 0 4 4" x="904" y="1416" width="64" height="64" shape-rendering="auto"><path fill="#000000" d="M4,2V0H2A2,2,0,0,1,4,2Z"/></svg><svg viewBox="0 0 4 4" x="904" y="1416" width="64" height="64" shape-rendering="auto"><path fill="#000000" d="M2,4H4V2A2,2,0,0,1,2,4Z"/></svg><svg viewBox="0 0 4 4" x="904" y="1416" width="64" height="64" shape-rendering="auto"><path fill="#000000" d="M0,2V4H2A2,2,0,0,1,0,2Z"/></svg><svg viewBox="0 0 4 4" x="968" y="1416" width="64" height="64" shape-rendering="auto"><rect fill="#000000" width="4" height="4"/></svg><svg viewBox="0 0 4 4" x="1032" y="1416" width="64" height="64" shape-rendering="auto"><path fill="#000000" d="M0,2V0H2A2,2,0,0,0,0,2Z"/></svg><svg viewBox="0 0 4 4" x="1160" y="1416" width="64" height="64" shape-rendering="auto"><path fill="#000000" d="M4,2V0H2A2,2,0,0,1,4,2Z"/></svg><svg viewBox="0 0 4 4" x="1160" y="1416" width="64" height="64" shape-rendering="auto"><path fill="#000000" d="M2,4H4V2A2,2,0,0,1,2,4Z"/></svg><svg viewBox="0 0 4 4" x="1224" y="1416" width="64" height="64" shape-rendering="auto"><rect fill="#000000" width="4" height="4"/></svg><svg viewBox="0 0 4 4" x="1288" y="1416" width="64" height="64" shape-rendering="auto"><path fill="#000000" d="M0,2V4H2A2,2,0,0,1,0,2Z"/></svg><svg viewBox="0 0 4 4" x="1416" y="1416" width="64" height="64" shape-rendering="auto"><path fill="#000000" d="M2,4H4V2A2,2,0,0,1,2,4Z"/></svg><svg viewBox="0 0 4 4" x="1480" y="1416" width="64" height="64" shape-rendering="auto"><rect fill="#000000" width="4" height="4"/></svg><svg viewBox="0 0 4 4" x="1544" y="1416" width="64" height="64" shape-rendering="auto"><path fill="#000000" d="M2,4H0V0H4V2A2,2,0,0,1,2,4Z"/></svg><svg viewBox="0 0 4 4" x="1672" y="1416" width="64" height="64" shape-rendering="auto"><path fill="#000000" d="M2,4H4V0H0V2A2,2,0,0,0,2,4Z"/></svg><svg viewBox="0 0 4 4" x="1736" y="1416" width="64" height="64" shape-rendering="auto"><path fill="#000000" d="M2,4H0V0H4V2A2,2,0,0,1,2,4Z"/></svg><svg viewBox="0 0 4 4" x="712" y="1480" width="64" height="64" shape-rendering="auto"><path fill="#000000" d="M2,4H4V0H0V2A2,2,0,0,0,2,4Z"/></svg><svg viewBox="0 0 4 4" x="776" y="1480" width="64" height="64" shape-rendering="auto"><rect fill="#000000" width="4" height="4"/></svg><svg viewBox="0 0 4 4" x="840" y="1480" width="64" height="64" shape-rendering="auto"><rect fill="#000000" width="4" height="4"/></svg><svg viewBox="0 0 4 4" x="904" y="1480" width="64" height="64" shape-rendering="auto"><rect fill="#000000" width="4" height="4"/></svg><svg viewBox="0 0 4 4" x="968" y="1480" width="64" height="64" shape-rendering="auto"><path fill="#000000" d="M2,4H0V0H4V2A2,2,0,0,1,2,4Z"/></svg><svg viewBox="0 0 4 4" x="1096" y="1480" width="64" height="64" shape-rendering="auto"><path fill="#000000" d="M2,4H4V2A2,2,0,0,1,2,4Z"/></svg><svg viewBox="0 0 4 4" x="1160" y="1480" width="64" height="64" shape-rendering="auto"><path fill="#000000" d="M0,2V4H4V0H2A2,2,0,0,0,0,2Z"/></svg><svg viewBox="0 0 4 4" x="1224" y="1480" width="64" height="64" shape-rendering="auto"><rect fill="#000000" width="4" height="4"/></svg><svg viewBox="0 0 4 4" x="1288" y="1480" width="64" height="64" shape-rendering="auto"><rect fill="#000000" width="4" height="4"/></svg><svg viewBox="0 0 4 4" x="1352" y="1480" width="64" height="64" shape-rendering="auto"><rect fill="#000000" width="4" height="4"/></svg><svg viewBox="0 0 4 4" x="1416" y="1480" width="64" height="64" shape-rendering="auto"><rect fill="#000000" width="4" height="4"/></svg><svg viewBox="0 0 4 4" x="1480" y="1480" width="64" height="64" shape-rendering="auto"><rect fill="#000000" width="4" height="4"/></svg><svg viewBox="0 0 4 4" x="1544" y="1480" width="64" height="64" shape-rendering="auto"><path fill="#000000" d="M0,2V0H2A2,2,0,0,0,0,2Z"/></svg><svg viewBox="0 0 4 4" x="1608" y="1480" width="64" height="64" shape-rendering="auto"><path fill="#000000" d="M0,2A2,2,0,0,0,2,4H2A2,2,0,0,0,2,0H2A2,2,0,0,0,0,2Z"/></svg><svg viewBox="0 0 4 4" x="712" y="1544" width="64" height="64" shape-rendering="auto"><path fill="#000000" d="M4,2V0H2A2,2,0,0,1,4,2Z"/></svg><svg viewBox="0 0 4 4" x="776" y="1544" width="64" height="64" shape-rendering="auto"><path fill="#000000" d="M0,0V2A2,2,0,0,0,4,2H4V0Z"/></svg><svg viewBox="0 0 4 4" x="840" y="1544" width="64" height="64" shape-rendering="auto"><path fill="#000000" d="M0,2V0H2A2,2,0,0,0,0,2Z"/></svg><svg viewBox="0 0 4 4" x="840" y="1544" width="64" height="64" shape-rendering="auto"><path fill="#000000" d="M4,2V0H2A2,2,0,0,1,4,2Z"/></svg><svg viewBox="0 0 4 4" x="904" y="1544" width="64" height="64" shape-rendering="auto"><path fill="#000000" d="M0,0V2A2,2,0,0,0,4,2H4V0Z"/></svg><svg viewBox="0 0 4 4" x="968" y="1544" width="64" height="64" shape-rendering="auto"><path fill="#000000" d="M0,2V0H2A2,2,0,0,0,0,2Z"/></svg><svg viewBox="0 0 4 4" x="1032" y="1544" width="64" height="64" shape-rendering="auto"><path fill="#000000" d="M4,0H2A2,2,0,0,0,2,4H4Z"/></svg><svg viewBox="0 0 4 4" x="1096" y="1544" width="64" height="64" shape-rendering="auto"><rect fill="#000000" width="4" height="4"/></svg><svg viewBox="0 0 4 4" x="1160" y="1544" width="64" height="64" shape-rendering="auto"><rect fill="#000000" width="4" height="4"/></svg><svg viewBox="0 0 4 4" x="1224" y="1544" width="64" height="64" shape-rendering="auto"><rect fill="#000000" width="4" height="4"/></svg><svg viewBox="0 0 4 4" x="1288" y="1544" width="64" height="64" shape-rendering="auto"><path fill="#000000" d="M2,4H0V0H4V2A2,2,0,0,1,2,4Z"/></svg><svg viewBox="0 0 4 4" x="1352" y="1544" width="64" height="64" shape-rendering="auto"><path fill="#000000" d="M0,2V0H2A2,2,0,0,0,0,2Z"/></svg><svg viewBox="0 0 4 4" x="1352" y="1544" width="64" height="64" shape-rendering="auto"><path fill="#000000" d="M4,2V0H2A2,2,0,0,1,4,2Z"/></svg><svg viewBox="0 0 4 4" x="1416" y="1544" width="64" height="64" shape-rendering="auto"><path fill="#000000" d="M2,4H4V0H0V2A2,2,0,0,0,2,4Z"/></svg><svg viewBox="0 0 4 4" x="1480" y="1544" width="64" height="64" shape-rendering="auto"><path fill="#000000" d="M2,4H0V0H4V2A2,2,0,0,1,2,4Z"/></svg><svg viewBox="0 0 4 4" x="712" y="1608" width="64" height="64" shape-rendering="auto"><path fill="#000000" d="M4,4V2A2,2,0,0,0,0,2H0V4Z"/></svg><svg viewBox="0 0 4 4" x="968" y="1608" width="64" height="64" shape-rendering="auto"><path fill="#000000" d="M0,2A2,2,0,0,0,2,4H2A2,2,0,0,0,2,0H2A2,2,0,0,0,0,2Z"/></svg><svg viewBox="0 0 4 4" x="1096" y="1608" width="64" height="64" shape-rendering="auto"><path fill="#000000" d="M4,2V0H2A2,2,0,0,1,4,2Z"/></svg><svg viewBox="0 0 4 4" x="1160" y="1608" width="64" height="64" shape-rendering="auto"><path fill="#000000" d="M2,4H4V0H0V2A2,2,0,0,0,2,4Z"/></svg><svg viewBox="0 0 4 4" x="1224" y="1608" width="64" height="64" shape-rendering="auto"><rect fill="#000000" width="4" height="4"/></svg><svg viewBox="0 0 4 4" x="1288" y="1608" width="64" height="64" shape-rendering="auto"><path fill="#000000" d="M0,2V0H2A2,2,0,0,0,0,2Z"/></svg><svg viewBox="0 0 4 4" x="1480" y="1608" width="64" height="64" shape-rendering="auto"><path fill="#000000" d="M2,4H4V2A2,2,0,0,1,2,4Z"/></svg><svg viewBox="0 0 4 4" x="1544" y="1608" width="64" height="64" shape-rendering="auto"><path fill="#000000" d="M4,4V2A2,2,0,0,0,0,2H0V4Z"/></svg><svg viewBox="0 0 4 4" x="1736" y="1608" width="64" height="64" shape-rendering="auto"><path fill="#000000" d="M4,4V2A2,2,0,0,0,0,2H0V4Z"/></svg><svg viewBox="0 0 4 4" x="712" y="1672" width="64" height="64" shape-rendering="auto"><rect fill="#000000" width="4" height="4"/></svg><svg viewBox="0 0 4 4" x="776" y="1672" width="64" height="64" shape-rendering="auto"><path fill="#000000" d="M0,2V4H2A2,2,0,0,1,0,2Z"/></svg><svg viewBox="0 0 4 4" x="904" y="1672" width="64" height="64" shape-rendering="auto"><path fill="#000000" d="M0,2A2,2,0,0,0,2,4H2A2,2,0,0,0,2,0H2A2,2,0,0,0,0,2Z"/></svg><svg viewBox="0 0 4 4" x="1032" y="1672" width="64" height="64" shape-rendering="auto"><path fill="#000000" d="M4,0H2A2,2,0,0,0,2,4H4Z"/></svg><svg viewBox="0 0 4 4" x="1096" y="1672" width="64" height="64" shape-rendering="auto"><path fill="#000000" d="M4,2V4H0V0H2A2,2,0,0,1,4,2Z"/></svg><svg viewBox="0 0 4 4" x="1160" y="1672" width="64" height="64" shape-rendering="auto"><path fill="#000000" d="M4,2V0H2A2,2,0,0,1,4,2Z"/></svg><svg viewBox="0 0 4 4" x="1224" y="1672" width="64" height="64" shape-rendering="auto"><rect fill="#000000" width="4" height="4"/></svg><svg viewBox="0 0 4 4" x="1480" y="1672" width="64" height="64" shape-rendering="auto"><path fill="#000000" d="M0,2V4H4V0H2A2,2,0,0,0,0,2Z"/></svg><svg viewBox="0 0 4 4" x="1544" y="1672" width="64" height="64" shape-rendering="auto"><rect fill="#000000" width="4" height="4"/></svg><svg viewBox="0 0 4 4" x="1672" y="1672" width="64" height="64" shape-rendering="auto"><path fill="#000000" d="M2,4H4V2A2,2,0,0,1,2,4Z"/></svg><svg viewBox="0 0 4 4" x="1736" y="1672" width="64" height="64" shape-rendering="auto"><rect fill="#000000" width="4" height="4"/></svg><svg viewBox="0 0 4 4" x="712" y="1736" width="64" height="64" shape-rendering="auto"><path fill="#000000" d="M2,4H4V0H0V2A2,2,0,0,0,2,4Z"/></svg><svg viewBox="0 0 4 4" x="776" y="1736" width="64" height="64" shape-rendering="auto"><rect fill="#000000" width="4" height="4"/></svg><svg viewBox="0 0 4 4" x="840" y="1736" width="64" height="64" shape-rendering="auto"><path fill="#000000" d="M0,4H2A2,2,0,0,0,2,0H0Z"/></svg><svg viewBox="0 0 4 4" x="968" y="1736" width="64" height="64" shape-rendering="auto"><path fill="#000000" d="M0,2A2,2,0,0,0,2,4H2A2,2,0,0,0,2,0H2A2,2,0,0,0,0,2Z"/></svg><svg viewBox="0 0 4 4" x="1032" y="1736" width="64" height="64" shape-rendering="auto"><path fill="#000000" d="M4,2V0H2A2,2,0,0,1,4,2Z"/></svg><svg viewBox="0 0 4 4" x="1096" y="1736" width="64" height="64" shape-rendering="auto"><path fill="#000000" d="M0,0V2A2,2,0,0,0,4,2H4V0Z"/></svg><svg viewBox="0 0 4 4" x="1224" y="1736" width="64" height="64" shape-rendering="auto"><path fill="#000000" d="M0,0V2A2,2,0,0,0,4,2H4V0Z"/></svg><svg viewBox="0 0 4 4" x="1480" y="1736" width="64" height="64" shape-rendering="auto"><path fill="#000000" d="M2,4H4V0H0V2A2,2,0,0,0,2,4Z"/></svg><svg viewBox="0 0 4 4" x="1544" y="1736" width="64" height="64" shape-rendering="auto"><path fill="#000000" d="M2,4H0V0H4V2A2,2,0,0,1,2,4Z"/></svg><svg viewBox="0 0 4 4" x="1672" y="1736" width="64" height="64" shape-rendering="auto"><path fill="#000000" d="M4,0H2A2,2,0,0,0,2,4H4Z"/></svg><svg viewBox="0 0 4 4" x="1736" y="1736" width="64" height="64" shape-rendering="auto"><path fill="#000000" d="M2,4H0V0H4V2A2,2,0,0,1,2,4Z"/></svg><svg version="1.0" id="qr__Ebene_1" x="200" y="200" width="448" height="448" viewBox="0 0 699.988 699.988" enable-background="new 0 0 699.988 699.988" xml:space="preserve" shape-rendering="auto">
<g>
	<path fill="#000000" d="M578.304,15.493c-30.441-4.132-60.883-7.437-91.322-9.916c-30.439-2.478-60.883-4.13-91.32-4.957   c-0.002,0-0.002,0-0.002,0c-30.441-0.826-60.881-0.826-91.322,0c-30.441,0.826-60.882,2.479-91.323,4.957   c-30.44,2.48-60.882,5.784-91.323,9.916c-30.441,4.13-60.882,9.088-91.324,14.872c-5.784,30.44-10.742,60.882-14.873,91.322   c-4.131,30.441-7.436,60.882-9.916,91.322C3.1,243.45,1.448,273.893,0.62,304.332c-0.827,30.442-0.827,60.884,0,91.324   c0.826,30.442,2.479,60.882,4.958,91.324c2.479,30.442,5.784,60.883,9.916,91.323c4.13,30.441,9.088,60.881,14.872,91.322   c30.441,5.781,60.882,10.739,91.324,14.87c30.44,4.135,60.881,7.438,91.323,9.914c30.441,2.48,60.881,4.132,91.323,4.958   c30.44,0.826,60.881,0.826,91.321,0c0.002,0,0.002,0,0.002,0c30.439-0.826,60.881-2.479,91.32-4.958   c30.439-2.479,60.883-5.78,91.324-9.914c30.438-4.131,60.881-9.089,91.318-14.87c5.783-30.441,10.74-60.881,14.871-91.322   c4.133-30.44,7.439-60.881,9.916-91.323c2.48-30.441,4.131-60.881,4.957-91.324c0.826-30.441,0.826-60.882,0-91.324   c-0.824-30.438-2.479-60.882-4.957-91.321c-2.479-30.441-5.783-60.882-9.916-91.323c-4.131-30.44-9.088-60.882-14.871-91.322   C639.185,24.581,608.744,19.624,578.304,15.493z M596.01,206.636c1.771,31.855,2.949,63.714,3.543,95.569   c0.59,31.858,0.59,63.716,0,95.575c-0.594,31.858-1.771,63.714-3.543,95.573c-1.77,31.857-4.131,63.716-7.08,95.573   c-31.857,2.95-63.719,5.311-95.574,7.082c-31.857,1.771-63.713,2.95-95.568,3.541c-0.002,0-0.002,0-0.002,0   c-31.855,0.59-63.713,0.59-95.571,0c-31.858-0.591-63.716-1.771-95.573-3.541c-31.857-1.771-63.715-4.133-95.572-7.082   c-2.951-31.857-5.312-63.716-7.083-95.573c-1.771-31.858-2.951-63.714-3.542-95.573s-0.59-63.716,0-95.575   c0.59-31.856,1.771-63.715,3.541-95.569c1.771-31.858,4.132-63.716,7.083-95.572c31.857-2.95,63.714-5.313,95.573-7.081   c31.856-1.772,63.714-2.952,95.573-3.542c31.856-0.592,63.711-0.592,95.571,0c0,0,0,0,0.002,0   c31.855,0.59,63.711,1.77,95.568,3.542c31.855,1.771,63.717,4.132,95.574,7.081C591.879,142.922,594.238,174.778,596.01,206.636z"/>
</g>
</svg>
<svg version="1.0" id="qr__Ebene_1" x="200" y="200" width="448" height="448" viewBox="0 0 699.988 699.988" enable-background="new 0 0 699.988 699.988" xml:space="preserve" shape-rendering="auto">
<g>
	<path fill="#000000" d="M395.865,201.374L395.865,201.374c-30.58-1.835-61.162-1.835-91.741,0   c-30.581,1.834-61.162,5.504-91.741,11.009c-5.505,30.58-9.174,61.161-11.009,91.74c-1.835,30.581-1.835,61.162,0,91.742   c1.834,30.581,5.504,61.16,11.009,91.74c30.581,5.504,61.161,9.174,91.741,11.01c30.58,1.834,61.161,1.834,91.741,0l0,0   c30.58-1.836,61.16-5.506,91.74-11.01c5.504-30.58,9.174-61.159,11.01-91.74c1.834-30.58,1.834-61.162,0-91.742   c-1.836-30.58-5.506-61.161-11.01-91.74C457.025,206.878,426.445,203.208,395.865,201.374z"/>
</g>
</svg>
<svg version="1.0" id="qr__Ebene_1" x="1352" y="200" width="448" height="448" viewBox="0 0 699.988 699.988" enable-background="new 0 0 699.988 699.988" xml:space="preserve" shape-rendering="auto">
<g>
	<path fill="#000000" d="M578.304,15.493c-30.441-4.132-60.883-7.437-91.322-9.916c-30.439-2.478-60.883-4.13-91.32-4.957   c-0.002,0-0.002,0-0.002,0c-30.441-0.826-60.881-0.826-91.322,0c-30.441,0.826-60.882,2.479-91.323,4.957   c-30.44,2.48-60.882,5.784-91.323,9.916c-30.441,4.13-60.882,9.088-91.324,14.872c-5.784,30.44-10.742,60.882-14.873,91.322   c-4.131,30.441-7.436,60.882-9.916,91.322C3.1,243.45,1.448,273.893,0.62,304.332c-0.827,30.442-0.827,60.884,0,91.324   c0.826,30.442,2.479,60.882,4.958,91.324c2.479,30.442,5.784,60.883,9.916,91.323c4.13,30.441,9.088,60.881,14.872,91.322   c30.441,5.781,60.882,10.739,91.324,14.87c30.44,4.135,60.881,7.438,91.323,9.914c30.441,2.48,60.881,4.132,91.323,4.958   c30.44,0.826,60.881,0.826,91.321,0c0.002,0,0.002,0,0.002,0c30.439-0.826,60.881-2.479,91.32-4.958   c30.439-2.479,60.883-5.78,91.324-9.914c30.438-4.131,60.881-9.089,91.318-14.87c5.783-30.441,10.74-60.881,14.871-91.322   c4.133-30.44,7.439-60.881,9.916-91.323c2.48-30.441,4.131-60.881,4.957-91.324c0.826-30.441,0.826-60.882,0-91.324   c-0.824-30.438-2.479-60.882-4.957-91.321c-2.479-30.441-5.783-60.882-9.916-91.323c-4.131-30.44-9.088-60.882-14.871-91.322   C639.185,24.581,608.744,19.624,578.304,15.493z M596.01,206.636c1.771,31.855,2.949,63.714,3.543,95.569   c0.59,31.858,0.59,63.716,0,95.575c-0.594,31.858-1.771,63.714-3.543,95.573c-1.77,31.857-4.131,63.716-7.08,95.573   c-31.857,2.95-63.719,5.311-95.574,7.082c-31.857,1.771-63.713,2.95-95.568,3.541c-0.002,0-0.002,0-0.002,0   c-31.855,0.59-63.713,0.59-95.571,0c-31.858-0.591-63.716-1.771-95.573-3.541c-31.857-1.771-63.715-4.133-95.572-7.082   c-2.951-31.857-5.312-63.716-7.083-95.573c-1.771-31.858-2.951-63.714-3.542-95.573s-0.59-63.716,0-95.575   c0.59-31.856,1.771-63.715,3.541-95.569c1.771-31.858,4.132-63.716,7.083-95.572c31.857-2.95,63.714-5.313,95.573-7.081   c31.856-1.772,63.714-2.952,95.573-3.542c31.856-0.592,63.711-0.592,95.571,0c0,0,0,0,0.002,0   c31.855,0.59,63.711,1.77,95.568,3.542c31.855,1.771,63.717,4.132,95.574,7.081C591.879,142.922,594.238,174.778,596.01,206.636z"/>
</g>
</svg>
<svg version="1.0" id="qr__Ebene_1" x="1352" y="200" width="448" height="448" viewBox="0 0 699.988 699.988" enable-background="new 0 0 699.988 699.988" xml:space="preserve" shape-rendering="auto">
<g>
	<path fill="#000000" d="M395.865,201.374L395.865,201.374c-30.58-1.835-61.162-1.835-91.741,0   c-30.581,1.834-61.162,5.504-91.741,11.009c-5.505,30.58-9.174,61.161-11.009,91.74c-1.835,30.581-1.835,61.162,0,91.742   c1.834,30.581,5.504,61.16,11.009,91.74c30.581,5.504,61.161,9.174,91.741,11.01c30.58,1.834,61.161,1.834,91.741,0l0,0   c30.58-1.836,61.16-5.506,91.74-11.01c5.504-30.58,9.174-61.159,11.01-91.74c1.834-30.58,1.834-61.162,0-91.742   c-1.836-30.58-5.506-61.161-11.01-91.74C457.025,206.878,426.445,203.208,395.865,201.374z"/>
</g>
</svg>
<svg version="1.0" id="qr__Ebene_1" x="200" y="1352" width="448" height="448" viewBox="0 0 699.988 699.988" enable-background="new 0 0 699.988 699.988" xml:space="preserve" shape-rendering="auto">
<g>
	<path fill="#000000" d="M578.304,15.493c-30.441-4.132-60.883-7.437-91.322-9.916c-30.439-2.478-60.883-4.13-91.32-4.957   c-0.002,0-0.002,0-0.002,0c-30.441-0.826-60.881-0.826-91.322,0c-30.441,0.826-60.882,2.479-91.323,4.957   c-30.44,2.48-60.882,5.784-91.323,9.916c-30.441,4.13-60.882,9.088-91.324,14.872c-5.784,30.44-10.742,60.882-14.873,91.322   c-4.131,30.441-7.436,60.882-9.916,91.322C3.1,243.45,1.448,273.893,0.62,304.332c-0.827,30.442-0.827,60.884,0,91.324   c0.826,30.442,2.479,60.882,4.958,91.324c2.479,30.442,5.784,60.883,9.916,91.323c4.13,30.441,9.088,60.881,14.872,91.322   c30.441,5.781,60.882,10.739,91.324,14.87c30.44,4.135,60.881,7.438,91.323,9.914c30.441,2.48,60.881,4.132,91.323,4.958   c30.44,0.826,60.881,0.826,91.321,0c0.002,0,0.002,0,0.002,0c30.439-0.826,60.881-2.479,91.32-4.958   c30.439-2.479,60.883-5.78,91.324-9.914c30.438-4.131,60.881-9.089,91.318-14.87c5.783-30.441,10.74-60.881,14.871-91.322   c4.133-30.44,7.439-60.881,9.916-91.323c2.48-30.441,4.131-60.881,4.957-91.324c0.826-30.441,0.826-60.882,0-91.324   c-0.824-30.438-2.479-60.882-4.957-91.321c-2.479-30.441-5.783-60.882-9.916-91.323c-4.131-30.44-9.088-60.882-14.871-91.322   C639.185,24.581,608.744,19.624,578.304,15.493z M596.01,206.636c1.771,31.855,2.949,63.714,3.543,95.569   c0.59,31.858,0.59,63.716,0,95.575c-0.594,31.858-1.771,63.714-3.543,95.573c-1.77,31.857-4.131,63.716-7.08,95.573   c-31.857,2.95-63.719,5.311-95.574,7.082c-31.857,1.771-63.713,2.95-95.568,3.541c-0.002,0-0.002,0-0.002,0   c-31.855,0.59-63.713,0.59-95.571,0c-31.858-0.591-63.716-1.771-95.573-3.541c-31.857-1.771-63.715-4.133-95.572-7.082   c-2.951-31.857-5.312-63.716-7.083-95.573c-1.771-31.858-2.951-63.714-3.542-95.573s-0.59-63.716,0-95.575   c0.59-31.856,1.771-63.715,3.541-95.569c1.771-31.858,4.132-63.716,7.083-95.572c31.857-2.95,63.714-5.313,95.573-7.081   c31.856-1.772,63.714-2.952,95.573-3.542c31.856-0.592,63.711-0.592,95.571,0c0,0,0,0,0.002,0   c31.855,0.59,63.711,1.77,95.568,3.542c31.855,1.771,63.717,4.132,95.574,7.081C591.879,142.922,594.238,174.778,596.01,206.636z"/>
</g>
</svg>
<svg version="1.0" id="qr__Ebene_1" x="200" y="1352" width="448" height="448" viewBox="0 0 699.988 699.988" enable-background="new 0 0 699.988 699.988" xml:space="preserve" shape-rendering="auto">
<g>
	<path fill="#000000" d="M395.865,201.374L395.865,201.374c-30.58-1.835-61.162-1.835-91.741,0   c-30.581,1.834-61.162,5.504-91.741,11.009c-5.505,30.58-9.174,61.161-11.009,91.74c-1.835,30.581-1.835,61.162,0,91.742   c1.834,30.581,5.504,61.16,11.009,91.74c30.581,5.504,61.161,9.174,91.741,11.01c30.58,1.834,61.161,1.834,91.741,0l0,0   c30.58-1.836,61.16-5.506,91.74-11.01c5.504-30.58,9.174-61.159,11.01-91.74c1.834-30.58,1.834-61.162,0-91.742   c-1.836-30.58-5.506-61.161-11.01-91.74C457.025,206.878,426.445,203.208,395.865,201.374z"/>
</g>
</svg>
</svg>
  </symbol>
  <symbol id="revilise" viewBox="0 0 98 80">
<g clip-path="url(#revilise__clip0_91_121)">
        <path d="M68.3092 70.7558C68.3092 71.4573 68.8751 72.0256 69.5737 72.0256H81.966C82.6646 72.0256 83.2305 72.5939 83.2305 73.2954V77.4605C83.2305 78.1621 82.6646 78.7304 81.966 78.7304H62.5936C61.8952 78.7304 61.3291 78.1621 61.3291 77.4605V44.4446C61.3291 43.7433 61.8952 43.1748 62.5936 43.1748H81.7131C82.4117 43.1748 82.9776 43.7433 82.9776 44.4446V48.6097C82.9776 49.3111 82.4117 49.8796 81.7131 49.8796H69.5737C68.8751 49.8796 68.3092 50.4481 68.3092 51.1494V56.178C68.3092 56.8793 68.8751 57.4478 69.5737 57.4478H80.4486C81.1472 57.4478 81.7131 58.0163 81.7131 58.7177V62.7812C81.7131 63.4825 81.1472 64.051 80.4486 64.051H69.5737C68.8751 64.051 68.3092 64.6192 68.3092 65.3208V70.7558Z" fill="currentColor"/>
        <path d="M46.1551 78.8821C42.6482 78.8821 39.6977 78.103 37.3035 76.5456C35.2058 75.1513 33.6517 73.3278 32.6412 71.0751C32.3905 70.5164 32.6282 69.87 33.1551 69.5608L36.9279 67.3449C37.6016 66.9494 38.4609 67.2618 38.8402 67.9468C40.3465 70.6656 42.8523 72.0249 46.3575 72.0249C48.3132 72.0249 49.7464 71.6694 50.6568 70.9583C51.5673 70.2472 52.0225 69.35 52.0225 68.2662C52.0225 67.0135 51.4661 66.0484 50.3533 65.371C49.2406 64.6599 47.251 63.8979 44.3848 63.0852C42.7999 62.6112 41.4511 62.1371 40.3384 61.663C39.2593 61.1889 38.1634 60.5625 37.0506 59.7837C35.9715 58.971 35.1454 57.9551 34.5722 56.736C33.9989 55.517 33.7123 54.0948 33.7123 52.4694C33.7123 49.2524 34.842 46.6959 37.1012 44.7995C39.3942 42.8694 42.1424 41.9043 45.3459 41.9043C48.2121 41.9043 50.7243 42.6154 52.8824 44.0376C54.7597 45.2268 56.2783 46.8258 57.4382 48.8346C57.771 49.4111 57.5457 50.1372 56.9711 50.4705L53.3185 52.5891C52.6761 52.9616 51.8618 52.6941 51.463 52.066C50.0427 49.8291 48.0037 48.7106 45.3459 48.7106C43.8959 48.7106 42.7494 49.0492 41.9064 49.7265C41.0971 50.3699 40.6924 51.2165 40.6924 52.2662C40.6924 53.3837 41.1477 54.2979 42.0581 55.0091C43.0023 55.6863 44.7895 56.4313 47.4197 57.244C48.4987 57.5826 49.308 57.8535 49.8475 58.0567C50.4208 58.226 51.1795 58.5138 52.1237 58.9202C53.1016 59.2927 53.8434 59.6482 54.3492 59.9868C54.8887 60.3254 55.4957 60.7826 56.1701 61.3583C56.8445 61.9339 57.3503 62.5265 57.6875 63.136C58.0585 63.7456 58.362 64.4903 58.598 65.371C58.8678 66.2173 59.0026 67.1487 59.0026 68.1646C59.0026 71.4491 57.8056 74.0567 55.4114 75.9868C53.051 77.917 49.9656 78.8821 46.1551 78.8821Z" fill="currentColor"/>
        <path d="M21.4971 55.556C21.4971 54.8546 22.0632 54.2861 22.7616 54.2861H27.8197C28.518 54.2861 29.0842 54.8546 29.0842 55.556V77.1433C29.0842 77.8449 28.518 78.4131 27.8197 78.4131H22.7616C22.0632 78.4131 21.4971 77.8449 21.4971 77.1433V55.556Z" fill="currentColor"/>
        <path d="M21.4971 45.3968C21.4971 44.6955 22.0632 44.127 22.7616 44.127H27.8197C28.518 44.127 29.0842 44.6955 29.0842 45.3968V51.1111C29.0842 51.8124 28.518 52.3809 27.8197 52.3809H22.7616C22.0632 52.3809 21.4971 51.8124 21.4971 51.1111V45.3968Z" fill="currentColor"/>
        <path d="M6.98013 70.4385C6.98013 71.1401 7.54625 71.7083 8.24465 71.7083H19.2206C19.919 71.7083 20.4852 72.2766 20.4852 72.9782V77.1432C20.4852 77.8448 19.919 78.4131 19.2206 78.4131H1.26452C0.566143 78.4131 0 77.8448 0 77.1432V31.7464C0 31.0451 0.566143 30.4766 1.26452 30.4766H5.71562C6.41401 30.4766 6.98013 31.0451 6.98013 31.7464V70.4385Z" fill="currentColor"/>
        <path d="M90.7793 1.26984C90.7793 0.568527 91.3458 0 92.0438 0H96.4696C97.1683 0 97.7341 0.568528 97.7341 1.26984V78.7302C97.7341 79.4317 97.1683 80 96.4696 80H92.0438C91.3458 80 90.7793 79.4317 90.7793 78.7302V1.26984Z" fill="currentColor"/>
        <path d="M67.6779 35.5556C67.1348 35.5556 66.6517 35.207 66.4791 34.6898L55.4417 1.67398C55.1667 0.851219 55.7762 0 56.6405 0H61.5442C62.0951 0 62.5825 0.358048 62.7494 0.885194L69.9098 23.5083C70.2834 24.6896 71.9488 24.6883 72.3206 23.5063L79.4379 0.887238C79.6042 0.359055 80.0923 0 80.6436 0H85.5942C86.4591 0 87.0686 0.85247 86.7923 1.67552L75.7082 34.6914C75.5343 35.2078 75.0526 35.5556 74.5094 35.5556H67.6779Z" fill="currentColor"/>
        <path d="M38.1764 27.5809C38.1764 28.2823 38.7425 28.8508 39.4409 28.8508H51.8332C52.5316 28.8508 53.0977 29.4193 53.0977 30.1206V34.2857C53.0977 34.987 52.5316 35.5556 51.8332 35.5556H32.4608C31.7625 35.5556 31.1963 34.987 31.1963 34.2857V1.26984C31.1963 0.568527 31.7625 0 32.4608 0H51.5803C52.2787 0 52.8448 0.568527 52.8448 1.26984V5.43492C52.8448 6.13623 52.2787 6.70476 51.5803 6.70476H39.4409C38.7425 6.70476 38.1764 7.27327 38.1764 7.9746V13.0032C38.1764 13.7045 38.7425 14.273 39.4409 14.273H50.3158C51.0142 14.273 51.5803 14.8415 51.5803 15.5429V19.6063C51.5803 20.3077 51.0142 20.8762 50.3158 20.8762H39.4409C38.7425 20.8762 38.1764 21.4447 38.1764 22.146V27.5809Z" fill="currentColor"/>
        <path d="M20.1512 35.5556C19.7004 35.5556 19.2837 35.3145 19.0575 34.923L12.6566 23.8452C12.4303 23.4537 12.0137 23.2127 11.5629 23.2127H8.24465C7.54625 23.2127 6.98013 23.7812 6.98013 24.4825V34.2857C6.98013 34.987 6.41401 35.5556 5.71561 35.5556H1.26452C0.566142 35.5556 0 34.987 0 34.2857V1.26984C0 0.568527 0.566144 0 1.26452 0H14.1626C17.4334 0 20.2154 1.15132 22.5084 3.45397C24.8014 5.75662 25.9479 8.53333 25.9479 11.7841C25.9479 13.9852 25.324 16.0338 24.0764 17.9302C23.0895 19.4033 21.8494 20.5905 20.3562 21.4916C19.7146 21.8788 19.4486 22.7089 19.8276 23.3571L25.8411 33.6428C26.3361 34.4893 25.7282 35.5556 24.7507 35.5556H20.1512ZM8.24465 6.55238C7.54625 6.55238 6.98013 7.12089 6.98013 7.82222V15.7968C6.98013 16.4982 7.54625 17.0667 8.24465 17.0667H14.1626C15.4777 17.0667 16.6073 16.5587 17.5515 15.5429C18.4956 14.4931 18.9677 13.2402 18.9677 11.7841C18.9677 10.3281 18.4956 9.09206 17.5515 8.07619C16.6073 7.06032 15.4777 6.55238 14.1626 6.55238H8.24465Z" fill="currentColor"/>
    </g>
    <defs>
        <clipPath id="revilise__clip0_91_121">
            <rect width="98" height="80" fill="currentColor"/>
        </clipPath>
    </defs>
  </symbol>
</svg>
