<svg width="584" height="364" viewBox="0 0 584 364" fill="none" xmlns="http://www.w3.org/2000/svg">
    <rect x="54.9986" y="170.39" width="63.2582" height="63.2205" rx="31.6103" stroke="black" stroke-width="4"/>
    <rect x="77.0212" y="238.205" width="19.8082" height="19.7949" rx="9.89744" stroke="black" stroke-width="4"/>
    <path d="M85.0764 244.205V252.205H84.1077V245.221H84.0608L82.1077 246.518V245.533L84.1077 244.205H85.0764ZM87.1897 250.564V249.768L90.7053 244.205H91.2834V245.439H90.8928L88.2366 249.643V249.705H92.9709V250.564H87.1897ZM90.9553 252.205V250.322V249.951V244.205H91.8772V252.205H90.9553Z" fill="black"/>
    <rect x="2.7838" y="0.50463" width="19.8039" height="19.7992" rx="9.8996" transform="matrix(0.822041 -0.569428 0.569859 0.821742 97.2517 238.347)" stroke="black" stroke-width="4"/>
    <path d="M109.891 237.506L114.449 244.079L113.653 244.631L109.673 238.892L109.634 238.918L108.768 241.096L108.207 240.287L109.094 238.057L109.891 237.506ZM118.625 241.32C118.201 241.614 117.773 241.803 117.34 241.887C116.91 241.97 116.507 241.949 116.133 241.825C115.759 241.698 115.444 241.467 115.188 241.135L115.997 240.574C116.161 240.774 116.361 240.907 116.596 240.972C116.83 241.035 117.08 241.036 117.345 240.976C117.611 240.915 117.87 240.798 118.123 240.623C118.405 240.427 118.622 240.204 118.772 239.955C118.922 239.705 118.998 239.449 119 239.188C119.003 238.926 118.924 238.68 118.764 238.449C118.596 238.207 118.388 238.036 118.141 237.935C117.892 237.832 117.616 237.808 117.312 237.863C117.008 237.918 116.689 238.062 116.355 238.293L115.828 238.658L115.338 237.951L115.865 237.587C116.126 237.406 116.323 237.2 116.454 236.969C116.588 236.737 116.651 236.497 116.644 236.249C116.639 235.999 116.556 235.759 116.396 235.528C116.241 235.305 116.058 235.145 115.845 235.049C115.632 234.952 115.404 234.92 115.16 234.953C114.919 234.984 114.677 235.083 114.435 235.251C114.208 235.408 114.023 235.598 113.88 235.821C113.737 236.04 113.657 236.272 113.639 236.515C113.619 236.757 113.68 236.99 113.821 237.216L113.05 237.75C112.824 237.397 112.719 237.023 112.734 236.629C112.748 236.233 112.861 235.853 113.075 235.49C113.291 235.125 113.588 234.811 113.967 234.549C114.374 234.267 114.78 234.107 115.186 234.071C115.589 234.032 115.962 234.092 116.304 234.251C116.646 234.41 116.924 234.645 117.14 234.955C117.396 235.325 117.518 235.708 117.504 236.105C117.492 236.499 117.356 236.862 117.093 237.192L117.129 237.243C117.592 237.024 118.039 236.976 118.469 237.099C118.899 237.22 119.258 237.489 119.547 237.906C119.795 238.264 119.92 238.652 119.923 239.072C119.926 239.488 119.817 239.892 119.596 240.286C119.375 240.68 119.051 241.025 118.625 241.32Z" fill="black"/>
    <rect x="1.31318" y="2.5046" width="19.807" height="19.7961" rx="9.89803" transform="matrix(0.954643 0.297751 -0.298056 0.954549 123.989 201.425)" stroke="black" stroke-width="4"/>
    <path d="M130.11 212.243L127.726 219.879L126.801 219.591L128.882 212.924L128.838 212.91L126.587 213.567L126.88 212.627L129.185 211.955L130.11 212.243ZM129.922 220.565L130.132 219.893L133.514 217.92C133.911 217.69 134.242 217.485 134.508 217.306C134.775 217.124 134.987 216.942 135.145 216.76C135.306 216.575 135.423 216.366 135.496 216.133C135.58 215.864 135.588 215.612 135.52 215.375C135.455 215.139 135.328 214.933 135.14 214.757C134.952 214.581 134.72 214.45 134.444 214.364C134.151 214.273 133.876 214.254 133.619 214.307C133.366 214.359 133.145 214.475 132.958 214.654C132.774 214.834 132.637 215.069 132.546 215.36L131.666 215.085C131.805 214.638 132.031 214.277 132.343 214.003C132.655 213.73 133.018 213.554 133.433 213.476C133.85 213.399 134.281 213.429 134.726 213.568C135.173 213.708 135.54 213.926 135.827 214.223C136.113 214.519 136.305 214.859 136.401 215.24C136.497 215.622 136.484 216.01 136.361 216.402C136.274 216.683 136.137 216.942 135.951 217.179C135.769 217.414 135.502 217.657 135.151 217.907C134.803 218.156 134.337 218.447 133.753 218.781L131.465 220.08L131.446 220.14L134.996 221.247L134.74 222.067L129.922 220.565Z" fill="black"/>
    <rect x="2.51295" y="1.2991" width="19.807" height="19.7961" rx="9.89805" transform="matrix(0.952908 -0.303259 0.303568 0.95281 115.814 181.192)" stroke="black" stroke-width="4"/>
    <path d="M129.027 184.647L131.456 192.269L130.532 192.563L128.412 185.908L128.368 185.923L126.9 187.751L126.601 186.813L128.104 184.941L129.027 184.647ZM133.899 183.096L136.328 190.719L135.405 191.012L133.285 184.358L133.24 184.372L131.773 186.2L131.474 185.262L132.976 183.39L133.899 183.096Z" fill="black"/>
    <rect x="0.143707" y="2.82398" width="19.8022" height="19.8009" rx="9.90043" transform="matrix(0.742317 0.670049 -0.670463 0.741943 115.549 148.818)" stroke="black" stroke-width="4"/>
    <path d="M107.39 164.118L107.861 163.596L111.759 163.221C112.217 163.177 112.603 163.13 112.92 163.079C113.238 163.026 113.507 162.949 113.727 162.85C113.951 162.75 114.144 162.609 114.309 162.427C114.497 162.219 114.61 161.993 114.648 161.749C114.687 161.508 114.658 161.268 114.561 161.029C114.464 160.791 114.308 160.575 114.094 160.381C113.866 160.175 113.624 160.043 113.368 159.984C113.116 159.925 112.868 159.938 112.623 160.022C112.38 160.108 112.157 160.264 111.953 160.49L111.268 159.872C111.582 159.525 111.939 159.292 112.336 159.174C112.734 159.056 113.138 159.048 113.547 159.151C113.958 159.255 114.337 159.464 114.683 159.776C115.031 160.09 115.273 160.442 115.409 160.831C115.545 161.221 115.576 161.609 115.504 161.996C115.431 162.383 115.257 162.729 114.981 163.035C114.784 163.253 114.551 163.431 114.284 163.568C114.019 163.705 113.675 163.813 113.252 163.894C112.832 163.974 112.286 164.044 111.616 164.102L108.994 164.324L108.952 164.37L111.712 166.862L111.136 167.499L107.39 164.118ZM114.197 170.41C113.761 170.015 113.496 169.561 113.403 169.046C113.312 168.529 113.391 167.97 113.639 167.369C113.888 166.767 114.305 166.143 114.888 165.497C115.468 164.856 116.044 164.381 116.617 164.074C117.193 163.766 117.743 163.631 118.267 163.669C118.794 163.707 119.275 163.921 119.708 164.312C120.141 164.703 120.402 165.158 120.491 165.677C120.584 166.195 120.505 166.756 120.256 167.359C120.01 167.961 119.597 168.583 119.017 169.224C118.434 169.87 117.855 170.347 117.281 170.657C116.708 170.964 116.16 171.099 115.636 171.061C115.114 171.021 114.634 170.804 114.197 170.41ZM114.774 169.772C115.207 170.163 115.732 170.258 116.348 170.057C116.965 169.856 117.623 169.369 118.321 168.596C118.786 168.082 119.126 167.595 119.342 167.134C119.561 166.675 119.653 166.258 119.619 165.884C119.587 165.512 119.428 165.196 119.142 164.938C118.713 164.551 118.186 164.459 117.562 164.664C116.94 164.868 116.281 165.355 115.584 166.125C115.12 166.639 114.779 167.125 114.563 167.582C114.346 168.039 114.255 168.453 114.288 168.824C114.324 169.196 114.486 169.512 114.774 169.772Z" fill="black"/>
    <rect x="77.0212" y="146" width="19.8082" height="19.7949" rx="9.89744" stroke="black" stroke-width="4"/>
    <path d="M84.6731 152V160H83.7043V153.016H83.6575L81.7043 154.312V153.328L83.7043 152H84.6731ZM89.5208 151.891C89.8489 151.893 90.177 151.956 90.5051 152.078C90.8333 152.201 91.1327 152.404 91.4036 152.687C91.6744 152.969 91.8918 153.353 92.0559 153.84C92.22 154.327 92.302 154.937 92.302 155.672C92.302 156.383 92.2343 157.014 92.0989 157.566C91.9661 158.116 91.7734 158.579 91.5208 158.957C91.2708 159.335 90.9661 159.621 90.6067 159.816C90.2499 160.012 89.8463 160.109 89.3958 160.109C88.9478 160.109 88.5481 160.021 88.1965 159.844C87.8476 159.664 87.5611 159.415 87.3372 159.098C87.1158 158.777 86.9739 158.406 86.9114 157.984H87.8645C87.9504 158.352 88.121 158.655 88.3762 158.895C88.634 159.132 88.9739 159.25 89.3958 159.25C90.0129 159.25 90.4999 158.98 90.8567 158.441C91.2161 157.902 91.3958 157.141 91.3958 156.156H91.3333C91.1874 156.375 91.0142 156.564 90.8137 156.723C90.6132 156.882 90.3905 157.004 90.1458 157.09C89.901 157.176 89.6405 157.219 89.3645 157.219C88.9062 157.219 88.4856 157.105 88.1028 156.879C87.7226 156.65 87.4179 156.336 87.1887 155.937C86.9622 155.536 86.8489 155.078 86.8489 154.562C86.8489 154.073 86.9583 153.625 87.177 153.219C87.3984 152.81 87.7083 152.484 88.1067 152.242C88.5077 152 88.9791 151.883 89.5208 151.891ZM89.5208 152.75C89.1926 152.75 88.8971 152.832 88.634 152.996C88.3736 153.158 88.1666 153.376 88.0129 153.652C87.8619 153.926 87.7864 154.229 87.7864 154.562C87.7864 154.896 87.8593 155.199 88.0051 155.473C88.1536 155.743 88.3554 155.96 88.6106 156.121C88.8684 156.28 89.1614 156.359 89.4895 156.359C89.7369 156.359 89.9674 156.311 90.1809 156.215C90.3945 156.116 90.5806 155.982 90.7395 155.812C90.901 155.641 91.0273 155.447 91.1184 155.23C91.2096 155.012 91.2551 154.784 91.2551 154.547C91.2551 154.234 91.1796 153.941 91.0286 153.668C90.8801 153.395 90.6744 153.173 90.4114 153.004C90.151 152.835 89.8541 152.75 89.5208 152.75Z" fill="black"/>
    <rect x="2.79149" y="0.460247" width="19.8037" height="19.7994" rx="9.8997" transform="matrix(0.812873 -0.582441 0.582872 0.812564 43.1342 163.74)" stroke="black" stroke-width="4"/>
    <path d="M55.4238 162.882L60.0868 169.383L59.2993 169.947L55.2283 164.272L55.1902 164.299L54.3585 166.491L53.7847 165.691L54.6363 163.447L55.4238 162.882ZM64.1038 166.639C63.6677 166.952 63.227 167.15 62.7817 167.236C62.3371 167.317 61.9237 167.288 61.5416 167.149C61.158 167.007 60.8413 166.76 60.5914 166.407C60.392 166.134 60.2638 165.841 60.2069 165.529C60.1485 165.216 60.1584 164.912 60.2366 164.619C60.3154 164.322 60.4581 164.068 60.6649 163.856L60.6375 163.818C60.2687 163.96 59.8958 163.963 59.5188 163.826C59.1404 163.687 58.8285 163.445 58.5832 163.098C58.3443 162.77 58.2162 162.415 58.1988 162.033C58.1815 161.651 58.2671 161.279 58.4557 160.917C58.6464 160.552 58.9322 160.234 59.3133 159.961C59.6901 159.691 60.0805 159.525 60.4847 159.463C60.8888 159.401 61.2689 159.439 61.6249 159.578C61.9831 159.715 62.2816 159.948 62.5206 160.277C62.7659 160.623 62.8925 160.999 62.9005 161.403C62.9091 161.804 62.7898 162.154 62.5427 162.452L62.57 162.491C62.8354 162.364 63.1191 162.313 63.4214 162.337C63.7221 162.359 64.0128 162.447 64.2935 162.601C64.5727 162.754 64.812 162.967 65.0114 163.24C65.2613 163.593 65.3906 163.974 65.3996 164.384C65.4091 164.791 65.3038 165.191 65.0838 165.586C64.8644 165.977 64.5377 166.328 64.1038 166.639ZM63.6028 165.941C63.8971 165.73 64.117 165.5 64.2625 165.252C64.408 165.004 64.4767 164.751 64.4686 164.494C64.4606 164.237 64.3742 163.991 64.2093 163.757C64.0311 163.513 63.812 163.342 63.552 163.243C63.292 163.144 63.0154 163.118 62.7221 163.165C62.4308 163.21 62.1476 163.331 61.8724 163.529C61.5951 163.727 61.3862 163.959 61.2455 164.223C61.107 164.485 61.0429 164.756 61.0531 165.034C61.0654 165.31 61.1607 165.57 61.3388 165.814C61.5037 166.048 61.7055 166.211 61.9443 166.303C62.1852 166.393 62.4477 166.408 62.732 166.349C63.0162 166.289 63.3065 166.153 63.6028 165.941ZM61.3898 162.856C61.6226 162.689 61.7956 162.494 61.9088 162.272C62.024 162.049 62.0736 161.816 62.0574 161.575C62.0412 161.333 61.9537 161.1 61.7949 160.874C61.6349 160.655 61.4457 160.501 61.2272 160.411C61.0072 160.319 60.7754 160.292 60.5317 160.333C60.2865 160.37 60.0443 160.475 59.8051 160.647C59.5616 160.821 59.3815 161.019 59.2647 161.24C59.1464 161.46 59.0967 161.687 59.1157 161.924C59.133 162.158 59.2217 162.384 59.3817 162.603C59.5405 162.829 59.7306 162.989 59.9522 163.083C60.1758 163.176 60.412 163.204 60.6609 163.166C60.9097 163.129 61.1527 163.026 61.3898 162.856Z" fill="black"/>
    <rect x="1.18103" y="2.56948" width="19.8066" height="19.7965" rx="9.89824" transform="matrix(0.937864 0.347004 -0.347346 0.937737 37.2315 172.304)" stroke="black" stroke-width="4"/>
    <path d="M42.811 183.505L40.0322 191.007L39.1237 190.671L41.5497 184.122L41.5057 184.105L39.2235 184.644L39.5654 183.721L41.9024 183.169L42.811 183.505ZM42.4245 191.892L48.2389 186.497L48.2606 186.438L44.3919 185.007L44.6904 184.201L49.4969 185.979L49.1821 186.829L43.377 192.245L42.4245 191.892Z" fill="black"/>
    <rect x="2.54903" y="1.22689" width="19.8068" height="19.7963" rx="9.89816" transform="matrix(0.943872 -0.330312 0.330642 0.943756 27.7374 209.883)" stroke="black" stroke-width="4"/>
    <path d="M39.7553 213.334L42.4004 220.884L41.486 221.204L39.1767 214.612L39.1325 214.627L37.7178 216.497L37.3923 215.568L38.8409 213.654L39.7553 213.334ZM47.1154 219.349C46.804 219.453 46.4736 219.502 46.1243 219.498C45.7749 219.493 45.4255 219.401 45.0761 219.223C44.7257 219.042 44.3926 218.749 44.0767 218.344C43.76 217.936 43.4794 217.383 43.2348 216.685C43.0006 216.016 42.8558 215.402 42.8003 214.842C42.744 214.28 42.7731 213.78 42.8875 213.342C43.0011 212.903 43.1939 212.532 43.4661 212.229C43.7407 211.926 44.0907 211.7 44.5159 211.552C44.9387 211.404 45.3445 211.357 45.7332 211.411C46.1236 211.462 46.4758 211.601 46.7898 211.828C47.1038 212.054 47.3599 212.352 47.5583 212.722L46.6587 213.037C46.4563 212.727 46.1954 212.502 45.8762 212.363C45.557 212.223 45.1982 212.223 44.8 212.363C44.215 212.567 43.8433 212.983 43.6848 213.61C43.5287 214.235 43.6105 215.008 43.9301 215.928L43.9891 215.908C44.0535 215.651 44.1545 215.415 44.2921 215.201C44.4313 214.984 44.6023 214.795 44.8049 214.633C45.0075 214.471 45.2379 214.345 45.496 214.255C45.9286 214.103 46.3622 214.073 46.7969 214.164C47.2306 214.252 47.622 214.447 47.9709 214.75C48.3189 215.05 48.5782 215.444 48.7487 215.931C48.9123 216.397 48.9576 216.862 48.8848 217.323C48.811 217.782 48.6249 218.192 48.3265 218.553C48.0296 218.911 47.6259 219.176 47.1154 219.349ZM46.8312 218.538C47.1409 218.43 47.3916 218.255 47.5831 218.015C47.7771 217.773 47.8998 217.497 47.9511 217.186C48.0048 216.875 47.9757 216.56 47.8638 216.24C47.7545 215.928 47.585 215.669 47.3553 215.462C47.1272 215.252 46.8648 215.114 46.5681 215.046C46.2738 214.978 45.9719 214.999 45.6622 215.107C45.4286 215.189 45.2275 215.311 45.0586 215.475C44.8889 215.637 44.7559 215.824 44.6594 216.037C44.5655 216.249 44.5116 216.474 44.4979 216.71C44.4834 216.944 44.5157 217.175 44.5949 217.401C44.7 217.701 44.8682 217.956 45.0996 218.168C45.3334 218.378 45.6012 218.52 45.903 218.594C46.2072 218.667 46.5166 218.648 46.8312 218.538Z" fill="black"/>
    <rect x="0.413453" y="2.79728" width="19.8035" height="19.7996" rx="9.89981" transform="matrix(0.803058 0.595901 -0.596332 0.802738 58.8221 223.424)" stroke="black" stroke-width="4"/>
    <path d="M60.1219 235.343L55.3513 241.765L54.5733 241.187L58.7383 235.581L58.7007 235.553L56.3588 235.43L56.9458 234.64L59.3439 234.765L60.1219 235.343ZM59.1413 244.713C58.7733 244.44 58.4962 244.121 58.31 243.756C58.1238 243.391 58.0366 243.015 58.0483 242.628C58.06 242.241 58.1786 241.878 58.4041 241.539L59.157 242.098C58.9704 242.41 58.9236 242.749 59.0165 243.113C59.113 243.476 59.3255 243.78 59.6538 244.023C59.9173 244.219 60.1974 244.331 60.4939 244.36C60.7926 244.39 61.0805 244.341 61.3575 244.212C61.6382 244.084 61.8803 243.882 62.0837 243.608C62.2918 243.328 62.4157 243.033 62.4554 242.721C62.4987 242.41 62.4611 242.111 62.3425 241.825C62.2239 241.54 62.0284 241.294 61.756 241.089C61.561 240.941 61.3366 240.821 61.083 240.73C60.8309 240.637 60.6023 240.589 60.397 240.586L59.7344 239.958L62.4715 237.086L65.8092 239.563L65.2967 240.253L62.6115 238.26L60.9787 239.986L61.0163 240.014C61.2257 240.008 61.4554 240.043 61.7053 240.122C61.9552 240.2 62.1879 240.319 62.4033 240.479C62.7964 240.771 63.0768 241.125 63.2445 241.541C63.4158 241.957 63.4689 242.392 63.4039 242.846C63.3409 243.302 63.155 243.738 62.8459 244.154C62.5415 244.564 62.1778 244.862 61.7546 245.047C61.335 245.232 60.8962 245.299 60.438 245.247C59.9814 245.194 59.5491 245.016 59.1413 244.713Z" fill="black"/>
    <rect x="464" y="15" width="104" height="40" rx="6" stroke="black" stroke-width="4"/>
    <rect x="128.999" y="44.3896" width="63.2582" height="63.2205" rx="31.6103" stroke="black" stroke-width="4"/>
    <rect x="151.021" y="112.205" width="19.8082" height="19.7949" rx="9.89744" stroke="black" stroke-width="4"/>
    <path d="M155.076 126.205V125.502L157.717 122.611C158.027 122.273 158.282 121.979 158.483 121.729C158.683 121.476 158.832 121.239 158.928 121.018C159.027 120.794 159.076 120.559 159.076 120.314C159.076 120.033 159.009 119.79 158.873 119.584C158.74 119.378 158.558 119.219 158.326 119.107C158.095 118.995 157.834 118.939 157.545 118.939C157.238 118.939 156.97 119.003 156.74 119.131C156.514 119.256 156.338 119.432 156.213 119.658C156.091 119.885 156.03 120.15 156.03 120.455H155.108C155.108 119.986 155.216 119.575 155.432 119.221C155.648 118.867 155.942 118.59 156.315 118.393C156.69 118.195 157.11 118.096 157.576 118.096C158.045 118.096 158.461 118.195 158.823 118.393C159.184 118.59 159.468 118.857 159.674 119.193C159.88 119.529 159.983 119.903 159.983 120.314C159.983 120.609 159.929 120.896 159.823 121.178C159.718 121.456 159.536 121.768 159.276 122.111C159.018 122.452 158.66 122.869 158.201 123.361L156.405 125.283V125.346H160.123V126.205H155.076ZM161.377 124.564V123.768L164.893 118.205H165.471V119.439H165.08L162.424 123.643V123.705H167.158V124.564H161.377ZM165.143 126.205V124.322V123.951V118.205H166.065V126.205H165.143Z" fill="black"/>
    <rect x="2.7838" y="0.50463" width="19.8039" height="19.7992" rx="9.8996" transform="matrix(0.822041 -0.569428 0.569859 0.821742 171.252 112.347)" stroke="black" stroke-width="4"/>
    <path d="M185.091 120.406L184.69 119.828L185.213 115.949C185.275 115.495 185.317 115.107 185.34 114.788C185.361 114.466 185.348 114.187 185.301 113.95C185.254 113.71 185.161 113.489 185.022 113.288C184.862 113.057 184.667 112.895 184.439 112.803C184.212 112.71 183.972 112.683 183.718 112.723C183.463 112.763 183.217 112.865 182.98 113.03C182.727 113.205 182.543 113.41 182.427 113.645C182.312 113.877 182.268 114.122 182.294 114.379C182.323 114.635 182.424 114.888 182.597 115.138L181.84 115.663C181.572 115.278 181.427 114.878 181.403 114.464C181.379 114.05 181.463 113.656 181.657 113.281C181.852 112.905 182.141 112.584 182.525 112.319C182.91 112.052 183.308 111.897 183.718 111.853C184.128 111.81 184.514 111.867 184.874 112.026C185.235 112.185 185.532 112.434 185.767 112.772C185.935 113.014 186.055 113.28 186.127 113.572C186.2 113.861 186.228 114.22 186.21 114.651C186.192 115.078 186.135 115.624 186.039 116.29L185.657 118.892L185.693 118.944L188.75 116.826L189.239 117.532L185.091 120.406ZM192.85 115.164C192.426 115.458 191.998 115.647 191.565 115.731C191.134 115.814 190.732 115.793 190.358 115.669C189.984 115.542 189.669 115.312 189.413 114.979L190.222 114.418C190.386 114.618 190.586 114.751 190.821 114.816C191.055 114.879 191.305 114.88 191.57 114.82C191.836 114.76 192.095 114.642 192.347 114.467C192.63 114.271 192.846 114.048 192.996 113.799C193.146 113.549 193.223 113.293 193.225 113.032C193.228 112.771 193.149 112.524 192.989 112.293C192.821 112.051 192.613 111.88 192.366 111.779C192.117 111.676 191.84 111.652 191.536 111.707C191.232 111.762 190.914 111.906 190.58 112.137L190.053 112.502L189.563 111.796L190.09 111.431C190.351 111.25 190.547 111.044 190.679 110.814C190.813 110.582 190.876 110.341 190.869 110.093C190.863 109.843 190.781 109.603 190.62 109.372C190.466 109.149 190.282 108.99 190.07 108.893C189.857 108.796 189.629 108.764 189.385 108.797C189.144 108.828 188.902 108.927 188.66 109.095C188.433 109.252 188.248 109.442 188.105 109.665C187.962 109.884 187.882 110.116 187.864 110.359C187.844 110.601 187.905 110.835 188.045 111.06L187.275 111.594C187.049 111.241 186.943 110.867 186.959 110.473C186.972 110.077 187.086 109.697 187.3 109.334C187.516 108.969 187.813 108.655 188.192 108.393C188.599 108.111 189.005 107.952 189.41 107.915C189.814 107.876 190.187 107.936 190.529 108.095C190.871 108.254 191.149 108.489 191.364 108.799C191.621 109.17 191.743 109.553 191.729 109.949C191.717 110.343 191.58 110.706 191.318 111.036L191.354 111.088C191.817 110.868 192.263 110.82 192.694 110.943C193.123 111.064 193.483 111.333 193.772 111.75C194.02 112.108 194.145 112.496 194.148 112.916C194.151 113.332 194.042 113.737 193.821 114.131C193.6 114.525 193.276 114.869 192.85 115.164Z" fill="black"/>
    <rect x="1.31318" y="2.5046" width="19.807" height="19.7961" rx="9.89803" transform="matrix(0.954643 0.297751 -0.298056 0.954549 197.989 75.4255)" stroke="black" stroke-width="4"/>
    <path d="M198.302 92.8122L198.512 92.141L201.894 90.168C202.291 89.9371 202.622 89.7322 202.888 89.5533C203.155 89.3719 203.367 89.1898 203.525 89.0072C203.687 88.8229 203.804 88.6139 203.877 88.3803C203.96 88.1118 203.968 87.8592 203.9 87.6225C203.835 87.3866 203.708 87.1807 203.52 87.0048C203.332 86.8289 203.101 86.6979 202.825 86.6118C202.531 86.5203 202.256 86.5014 201.999 86.5549C201.746 86.6068 201.526 86.7223 201.339 86.9013C201.154 87.0811 201.017 87.3165 200.926 87.6073L200.046 87.3328C200.186 86.8854 200.411 86.5248 200.723 86.2511C201.035 85.9774 201.398 85.8015 201.813 85.7234C202.23 85.6462 202.661 85.6769 203.106 85.8157C203.553 85.9553 203.92 86.1734 204.207 86.4701C204.494 86.7668 204.685 87.1062 204.781 87.4881C204.878 87.87 204.864 88.2574 204.742 88.6501C204.654 88.931 204.517 89.1898 204.332 89.4265C204.149 89.6614 203.882 89.9042 203.531 90.1548C203.183 90.4037 202.717 90.6948 202.133 91.0281L199.845 92.3276L199.826 92.3873L203.376 93.4946L203.12 94.3149L198.302 92.8122ZM204.66 94.7952L204.87 94.1241L208.252 92.1511C208.649 91.9202 208.98 91.7153 209.246 91.5363C209.513 91.3549 209.725 91.1729 209.883 90.9903C210.045 90.806 210.162 90.597 210.235 90.3633C210.318 90.0949 210.326 89.8423 210.258 89.6056C210.193 89.3697 210.066 89.1638 209.878 88.9879C209.691 88.812 209.459 88.681 209.183 88.5949C208.889 88.5034 208.614 88.4844 208.357 88.538C208.104 88.5899 207.884 88.7053 207.697 88.8844C207.512 89.0642 207.375 89.2995 207.284 89.5904L206.404 89.3159C206.544 88.8684 206.77 88.5079 207.081 88.2341C207.393 87.9604 207.757 87.7846 208.171 87.7065C208.588 87.6292 209.019 87.66 209.464 87.7988C209.911 87.9384 210.279 88.1565 210.565 88.4532C210.852 88.7499 211.043 89.0892 211.139 89.4712C211.236 89.8531 211.222 90.2404 211.1 90.6332C211.012 90.9141 210.875 91.1729 210.69 91.4095C210.507 91.6445 210.24 91.8873 209.889 92.1379C209.541 92.3867 209.075 92.6779 208.491 93.0112L206.203 94.3107L206.184 94.3704L209.734 95.4776L209.478 96.2979L204.66 94.7952Z" fill="black"/>
    <rect x="2.51295" y="1.2991" width="19.807" height="19.7961" rx="9.89805" transform="matrix(0.952908 -0.303259 0.303568 0.95281 189.814 55.192)" stroke="black" stroke-width="4"/>
    <path d="M201.562 67.5084L201.349 66.8385L202.987 63.2835C203.18 62.8669 203.334 62.5091 203.449 62.2101C203.563 61.9086 203.633 61.6378 203.657 61.3977C203.684 61.1543 203.66 60.916 203.585 60.6827C203.5 60.4147 203.362 60.2033 203.17 60.0483C202.981 59.8926 202.759 59.7965 202.504 59.7601C202.249 59.7237 201.984 59.7493 201.709 59.837C201.416 59.9302 201.18 60.0723 201 60.2634C200.822 60.4512 200.708 60.672 200.658 60.9258C200.61 61.1787 200.632 61.4504 200.725 61.7407L199.846 62.0203C199.704 61.5736 199.682 61.1488 199.781 60.7458C199.879 60.3428 200.076 59.9906 200.37 59.6891C200.668 59.3868 201.038 59.1649 201.483 59.0236C201.929 58.8814 202.355 58.8497 202.76 58.9285C203.165 59.0073 203.517 59.1756 203.815 59.4333C204.113 59.691 204.324 60.0159 204.449 60.4079C204.538 60.6883 204.575 60.9787 204.558 61.279C204.544 61.5761 204.465 61.9279 204.321 62.3344C204.179 62.7376 203.964 63.2432 203.677 63.8512L202.548 66.2273L202.567 66.2868L206.11 65.1591L206.371 65.9779L201.562 67.5084ZM208.16 57.0133L210.589 64.6357L209.665 64.9295L207.545 58.2747L207.501 58.289L206.033 60.1169L205.734 59.179L207.237 57.307L208.16 57.0133Z" fill="black"/>
    <rect x="0.143707" y="2.82398" width="19.8022" height="19.8009" rx="9.90043" transform="matrix(0.742317 0.670049 -0.670463 0.741943 189.549 22.818)" stroke="black" stroke-width="4"/>
    <path d="M183.195 39.8948C182.813 39.5493 182.531 39.1756 182.35 38.7738C182.171 38.3737 182.099 37.9774 182.135 37.5848C182.174 37.192 182.326 36.8331 182.592 36.5081L183.322 37.1677C183.165 37.3729 183.081 37.5974 183.072 37.8412C183.064 38.0831 183.119 38.3264 183.239 38.571C183.358 38.8156 183.532 39.0408 183.76 39.2467C184.015 39.4771 184.282 39.6368 184.559 39.7259C184.837 39.815 185.103 39.8309 185.358 39.7737C185.614 39.7165 185.835 39.5835 186.024 39.3748C186.221 39.1565 186.341 38.9154 186.383 38.6515C186.426 38.3857 186.387 38.1112 186.263 37.8281C186.14 37.545 185.928 37.2673 185.626 36.9951L185.151 36.5659L185.727 35.9283L186.202 36.3575C186.438 36.5704 186.684 36.7146 186.938 36.7901C187.195 36.8674 187.443 36.8741 187.683 36.8102C187.926 36.7482 188.141 36.6128 188.329 36.4041C188.511 36.2032 188.625 35.9882 188.67 35.7591C188.716 35.5301 188.695 35.3007 188.607 35.0711C188.522 34.8432 188.37 34.6306 188.152 34.4334C187.947 34.2485 187.719 34.1117 187.47 34.023C187.224 33.9341 186.98 33.9088 186.738 33.9469C186.498 33.983 186.285 34.0953 186.097 34.2836L185.401 33.6555C185.694 33.3549 186.034 33.1671 186.421 33.0921C186.81 33.0151 187.206 33.0392 187.609 33.1643C188.013 33.2912 188.387 33.5091 188.729 33.8179C189.096 34.1494 189.344 34.5082 189.473 34.8943C189.603 35.2785 189.629 35.655 189.552 36.0239C189.475 36.3928 189.31 36.7173 189.057 36.9975C188.755 37.3318 188.409 37.5374 188.02 37.6143C187.633 37.693 187.249 37.6425 186.867 37.4628L186.825 37.5092C187.145 37.9095 187.293 38.3333 187.272 38.7805C187.252 39.2257 187.072 39.6367 186.732 40.0135C186.44 40.3361 186.09 40.5466 185.682 40.6448C185.278 40.7428 184.858 40.7291 184.424 40.6037C183.99 40.4783 183.58 40.242 183.195 39.8948ZM188.325 44.525C187.888 44.1306 187.623 43.6759 187.531 43.1608C187.44 42.6438 187.518 42.0849 187.766 41.4843C188.016 40.8817 188.432 40.2578 189.016 39.6125C189.595 38.971 190.171 38.4965 190.744 38.189C191.321 37.8814 191.871 37.7465 192.395 37.7843C192.922 37.822 193.402 38.0362 193.835 38.4271C194.268 38.818 194.529 39.2729 194.619 39.7918C194.711 40.3106 194.633 40.8713 194.383 41.4738C194.137 42.0762 193.724 42.6981 193.145 43.3396C192.562 43.9849 191.983 44.4623 191.408 44.7717C190.836 45.0792 190.287 45.214 189.764 45.1762C189.241 45.1364 188.762 44.9193 188.325 44.525ZM188.901 43.8873C189.334 44.2782 189.859 44.3732 190.476 44.1722C191.093 43.9712 191.75 43.4843 192.449 42.7114C192.913 42.1975 193.254 41.7101 193.47 41.2494C193.688 40.7903 193.78 40.3737 193.747 39.9993C193.715 39.6268 193.556 39.3114 193.27 39.0531C192.841 38.6658 192.314 38.5746 191.69 38.7796C191.068 38.9827 190.408 39.4697 189.712 40.2406C189.247 40.7546 188.907 41.2401 188.69 41.6972C188.474 42.1543 188.382 42.5682 188.416 42.9388C188.451 43.3112 188.613 43.6274 188.901 43.8873Z" fill="black"/>
    <rect x="151.021" y="20" width="19.8082" height="19.7949" rx="9.89744" stroke="black" stroke-width="4"/>
    <path d="M155.087 34V33.2969L157.728 30.4062C158.038 30.0677 158.293 29.7734 158.493 29.5234C158.694 29.2708 158.842 29.0339 158.939 28.8125C159.038 28.5885 159.087 28.3542 159.087 28.1094C159.087 27.8281 159.019 27.5846 158.884 27.3789C158.751 27.1732 158.569 27.0143 158.337 26.9023C158.105 26.7904 157.845 26.7344 157.556 26.7344C157.249 26.7344 156.98 26.7982 156.751 26.9258C156.525 27.0508 156.349 27.2266 156.224 27.4531C156.101 27.6797 156.04 27.9453 156.04 28.25H155.118C155.118 27.7812 155.226 27.3698 155.443 27.0156C155.659 26.6615 155.953 26.3854 156.325 26.1875C156.7 25.9896 157.121 25.8906 157.587 25.8906C158.056 25.8906 158.471 25.9896 158.833 26.1875C159.195 26.3854 159.479 26.6523 159.685 26.9883C159.891 27.3242 159.993 27.6979 159.993 28.1094C159.993 28.4036 159.94 28.6914 159.833 28.9727C159.729 29.2513 159.547 29.5625 159.286 29.9062C159.029 30.2474 158.67 30.6641 158.212 31.1562L156.415 33.0781V33.1406H160.134V34H155.087ZM164.294 25.8906C164.622 25.8932 164.95 25.9557 165.279 26.0781C165.607 26.2005 165.906 26.4036 166.177 26.6875C166.448 26.9687 166.665 27.3529 166.829 27.8398C166.993 28.3268 167.075 28.9375 167.075 29.6719C167.075 30.3828 167.008 31.0143 166.872 31.5664C166.74 32.1159 166.547 32.5794 166.294 32.957C166.044 33.3346 165.74 33.6211 165.38 33.8164C165.023 34.0117 164.62 34.1094 164.169 34.1094C163.721 34.1094 163.322 34.0208 162.97 33.8437C162.621 33.6641 162.335 33.4154 162.111 33.0977C161.889 32.7773 161.747 32.4062 161.685 31.9844H162.638C162.724 32.3516 162.894 32.6549 163.15 32.8945C163.407 33.1315 163.747 33.25 164.169 33.25C164.786 33.25 165.273 32.9805 165.63 32.4414C165.99 31.9023 166.169 31.1406 166.169 30.1562H166.107C165.961 30.375 165.788 30.5638 165.587 30.7227C165.387 30.8815 165.164 31.0039 164.919 31.0898C164.674 31.1758 164.414 31.2188 164.138 31.2188C163.68 31.2188 163.259 31.1055 162.876 30.8789C162.496 30.6497 162.191 30.3359 161.962 29.9375C161.736 29.5365 161.622 29.0781 161.622 28.5625C161.622 28.0729 161.732 27.625 161.95 27.2187C162.172 26.8099 162.482 26.4844 162.88 26.2422C163.281 26 163.753 25.8828 164.294 25.8906ZM164.294 26.75C163.966 26.75 163.67 26.832 163.407 26.9961C163.147 27.1576 162.94 27.3763 162.786 27.6523C162.635 27.9258 162.56 28.2292 162.56 28.5625C162.56 28.8958 162.633 29.1992 162.779 29.4727C162.927 29.7435 163.129 29.9596 163.384 30.1211C163.642 30.2799 163.935 30.3594 164.263 30.3594C164.51 30.3594 164.741 30.3112 164.954 30.2148C165.168 30.1159 165.354 29.9818 165.513 29.8125C165.674 29.6406 165.801 29.4466 165.892 29.2305C165.983 29.0117 166.029 28.7839 166.029 28.5469C166.029 28.2344 165.953 27.9414 165.802 27.668C165.654 27.3945 165.448 27.1732 165.185 27.0039C164.924 26.8346 164.628 26.75 164.294 26.75Z" fill="black"/>
    <rect x="2.79149" y="0.460247" width="19.8037" height="19.7994" rx="9.8997" transform="matrix(0.812873 -0.582441 0.582872 0.812564 117.134 37.7405)" stroke="black" stroke-width="4"/>
    <path d="M131.172 45.4711L130.762 44.8997L131.224 41.0129C131.278 40.5573 131.314 40.1696 131.331 39.8496C131.347 39.5276 131.33 39.2486 131.279 39.0126C131.229 38.773 131.133 38.5537 130.99 38.3548C130.826 38.1262 130.629 37.9678 130.399 37.8795C130.171 37.7897 129.93 37.7668 129.677 37.8108C129.423 37.8548 129.179 37.961 128.944 38.1294C128.694 38.3083 128.513 38.5164 128.401 38.7536C128.29 38.9871 128.249 39.2323 128.28 39.4892C128.312 39.7446 128.417 39.9961 128.595 40.2437L127.846 40.7806C127.572 40.3997 127.421 40.0024 127.39 39.5888C127.359 39.1751 127.437 38.7794 127.625 38.4017C127.814 38.0224 128.098 37.6971 128.477 37.4256C128.858 37.1525 129.254 36.991 129.663 36.941C130.073 36.891 130.459 36.9426 130.822 37.0957C131.185 37.2489 131.487 37.4926 131.727 37.8269C131.898 38.0661 132.022 38.331 132.1 38.6217C132.177 38.9088 132.21 39.2678 132.199 39.6988C132.188 40.1262 132.14 40.6733 132.055 41.3402L131.714 43.9484L131.751 43.9992L134.773 41.8333L135.274 42.5315L131.172 45.4711ZM138.732 40.1883C138.296 40.5007 137.856 40.6996 137.41 40.7847C136.966 40.8663 136.552 40.8373 136.17 40.6978C135.787 40.5562 135.47 40.309 135.22 39.9562C135.021 39.6826 134.892 39.39 134.836 39.0784C134.777 38.7647 134.787 38.4612 134.865 38.1681C134.944 37.8714 135.087 37.6169 135.294 37.4047L135.266 37.3666C134.897 37.5092 134.524 37.5121 134.148 37.3753C133.769 37.2364 133.457 36.9937 133.212 36.6473C132.973 36.3187 132.845 35.9636 132.827 35.582C132.81 35.2004 132.896 34.8283 133.084 34.4657C133.275 34.1016 133.561 33.783 133.942 33.51C134.319 33.24 134.709 33.074 135.113 33.0119C135.517 32.9498 135.898 32.9882 136.254 33.1271C136.612 33.2645 136.91 33.4975 137.149 33.8261C137.395 34.1726 137.521 34.5479 137.529 34.9523C137.538 35.353 137.419 35.7027 137.171 36.0015L137.199 36.0396C137.464 35.9136 137.748 35.8624 138.05 35.8861C138.351 35.9077 138.641 35.9958 138.922 36.1503C139.201 36.3027 139.441 36.5156 139.64 36.7892C139.89 37.142 140.019 37.5234 140.028 37.9335C140.038 38.3399 139.933 38.7405 139.713 39.1352C139.493 39.5263 139.166 39.8773 138.732 40.1883ZM138.232 39.49C138.526 39.2792 138.746 39.0495 138.891 38.8011C139.037 38.5527 139.105 38.3 139.097 38.0431C139.089 37.7861 139.003 37.5405 138.838 37.3062C138.66 37.0623 138.441 36.8909 138.181 36.7921C137.921 36.6932 137.644 36.6672 137.351 36.714C137.06 36.7593 136.776 36.8805 136.501 37.0777C136.224 37.2764 136.015 37.5078 135.874 37.7719C135.736 38.0346 135.672 38.3048 135.682 38.5826C135.694 38.8589 135.789 39.119 135.968 39.363C136.132 39.5973 136.334 39.7602 136.573 39.8518C136.814 39.9419 137.076 39.9572 137.361 39.8977C137.645 39.8382 137.935 39.7023 138.232 39.49ZM136.018 36.4048C136.251 36.2379 136.424 36.0435 136.537 35.8215C136.653 35.5979 136.702 35.3654 136.686 35.1239C136.67 34.8824 136.582 34.6488 136.424 34.4229C136.264 34.2044 136.074 34.05 135.856 33.9599C135.636 33.8677 135.404 33.8416 135.16 33.8816C134.915 33.9196 134.673 34.0242 134.434 34.1956C134.19 34.37 134.01 34.568 133.893 34.7894C133.775 35.0087 133.725 35.2366 133.744 35.4729C133.762 35.7071 133.85 35.9335 134.01 36.1521C134.169 36.3779 134.359 36.538 134.581 36.6323C134.804 36.7252 135.041 36.7529 135.29 36.7156C135.538 36.6783 135.781 36.5747 136.018 36.4048Z" fill="black"/>
    <rect x="1.18103" y="2.56948" width="19.8066" height="19.7965" rx="9.89824" transform="matrix(0.937864 0.347004 -0.347346 0.937737 111.232 46.3039)" stroke="black" stroke-width="4"/>
    <path d="M111.138 63.9363L111.382 63.277L114.863 61.4827C115.271 61.2727 115.613 61.0853 115.888 60.9205C116.163 60.7532 116.385 60.5825 116.552 60.4083C116.723 60.2327 116.851 60.0301 116.936 59.8005C117.033 59.5368 117.054 59.2849 116.999 59.045C116.946 58.806 116.83 58.5938 116.651 58.4084C116.473 58.2229 116.248 58.0801 115.977 57.9798C115.689 57.8731 115.415 57.8399 115.156 57.88C114.9 57.9186 114.674 58.0225 114.478 58.1915C114.285 58.3615 114.135 58.5894 114.029 58.8751L113.165 58.5552C113.327 58.1156 113.572 57.7673 113.897 57.5102C114.223 57.2531 114.595 57.0963 115.013 57.04C115.433 56.9845 115.862 57.0376 116.299 57.1994C116.739 57.3621 117.094 57.599 117.365 57.9102C117.636 58.2214 117.809 58.5702 117.885 58.9566C117.962 59.343 117.928 59.7291 117.786 60.115C117.683 60.3909 117.533 60.6422 117.335 60.8689C117.141 61.0941 116.862 61.3226 116.498 61.5546C116.138 61.7851 115.657 62.0515 115.057 62.354L112.704 63.5327L112.682 63.5913L116.17 64.8818L115.871 65.6876L111.138 63.9363ZM117.619 66.3342L123.433 60.9384L123.455 60.8798L119.586 59.4484L119.885 58.6425L124.691 60.4209L124.376 61.2708L118.571 66.6866L117.619 66.3342Z" fill="black"/>
    <rect x="2.54903" y="1.22689" width="19.8068" height="19.7963" rx="9.89816" transform="matrix(0.943872 -0.330312 0.330642 0.943756 101.737 83.8827)" stroke="black" stroke-width="4"/>
    <path d="M113.016 96.0683L112.783 95.4047L114.32 91.8044C114.5 91.3826 114.644 91.0206 114.751 90.7184C114.856 90.4138 114.918 90.1411 114.936 89.9003C114.955 89.6563 114.924 89.4188 114.844 89.1877C114.751 88.9223 114.606 88.7149 114.41 88.5654C114.217 88.4152 113.992 88.3254 113.737 88.2963C113.481 88.2672 113.216 88.3004 112.944 88.3959C112.654 88.4974 112.421 88.6462 112.247 88.8423C112.075 89.0351 111.967 89.2591 111.924 89.5142C111.883 89.7684 111.913 90.0393 112.014 90.3269L111.144 90.6314C110.989 90.189 110.955 89.765 111.042 89.3593C111.129 88.9537 111.315 88.596 111.601 88.2862C111.89 87.9755 112.254 87.7432 112.694 87.5892C113.137 87.4344 113.561 87.3906 113.968 87.4578C114.376 87.525 114.732 87.6832 115.037 87.9323C115.342 88.1814 115.563 88.5001 115.699 88.8884C115.796 89.1661 115.841 89.4553 115.833 89.756C115.827 90.0534 115.758 90.4073 115.626 90.8177C115.495 91.2249 115.295 91.7364 115.025 92.3523L113.964 94.7596L113.985 94.8186L117.495 93.5902L117.779 94.4013L113.016 96.0683ZM121.845 93.0942C121.534 93.1977 121.204 93.2471 120.854 93.2424C120.505 93.2377 120.156 93.1462 119.806 92.9677C119.456 92.7869 119.123 92.4937 118.807 92.0883C118.49 91.6805 118.209 91.1275 117.965 90.4296C117.731 89.7611 117.586 89.1468 117.53 88.5868C117.474 88.0244 117.503 87.5245 117.617 87.0871C117.731 86.6473 117.924 86.2764 118.196 85.9742C118.471 85.6711 118.821 85.4452 119.246 85.2964C119.669 85.1485 120.074 85.1016 120.463 85.156C120.854 85.207 121.206 85.3458 121.52 85.5725C121.834 85.7993 122.09 86.0973 122.288 86.4665L121.389 86.7814C121.186 86.4714 120.925 86.2468 120.606 86.1075C120.287 85.9681 119.928 85.9681 119.53 86.1075C118.945 86.3122 118.573 86.7278 118.415 87.3544C118.259 87.9802 118.34 88.753 118.66 89.6731L118.719 89.6524C118.783 89.3954 118.885 89.16 119.022 88.9463C119.161 88.7293 119.332 88.5398 119.535 88.3778C119.738 88.2158 119.968 88.0897 120.226 87.9994C120.659 87.848 121.092 87.8176 121.527 87.9083C121.961 87.9966 122.352 88.1921 122.701 88.4949C123.049 88.7952 123.308 89.1887 123.479 89.6753C123.642 90.1423 123.688 90.6065 123.615 91.0679C123.541 91.5269 123.355 91.9369 123.056 92.2979C122.76 92.6556 122.356 92.9211 121.845 93.0942ZM121.561 92.2832C121.871 92.1748 122.122 92.0002 122.313 91.7593C122.507 91.5176 122.63 91.2415 122.681 90.9311C122.735 90.6199 122.706 90.3045 122.594 89.985C122.484 89.6728 122.315 89.4135 122.085 89.2069C121.857 88.997 121.595 88.8585 121.298 88.7913C121.004 88.7232 120.702 88.7433 120.392 88.8517C120.159 88.9334 119.957 89.0563 119.789 89.2202C119.619 89.3817 119.486 89.5689 119.389 89.782C119.295 89.9942 119.242 90.2186 119.228 90.4552C119.213 90.6893 119.246 90.9194 119.325 91.1455C119.43 91.4453 119.598 91.701 119.83 91.9125C120.063 92.1231 120.331 92.2653 120.633 92.339C120.937 92.4119 121.247 92.3933 121.561 92.2832Z" fill="black"/>
    <rect x="0.413453" y="2.79728" width="19.8035" height="19.7996" rx="9.89981" transform="matrix(0.803058 0.595901 -0.596332 0.802738 132.822 97.4236)" stroke="black" stroke-width="4"/>
    <path d="M126.472 113.628L126.891 113.063L130.735 112.317C131.186 112.229 131.566 112.145 131.877 112.064C132.188 111.981 132.449 111.879 132.658 111.759C132.871 111.638 133.051 111.479 133.197 111.283C133.364 111.057 133.455 110.821 133.469 110.575C133.485 110.331 133.433 110.095 133.314 109.867C133.195 109.639 133.019 109.439 132.787 109.267C132.54 109.083 132.287 108.975 132.027 108.941C131.77 108.906 131.524 108.942 131.289 109.05C131.055 109.159 130.848 109.335 130.666 109.58L129.926 109.031C130.205 108.654 130.537 108.389 130.922 108.233C131.307 108.078 131.708 108.031 132.125 108.094C132.544 108.159 132.941 108.33 133.315 108.608C133.692 108.887 133.966 109.214 134.139 109.589C134.311 109.963 134.38 110.347 134.345 110.739C134.31 111.131 134.17 111.493 133.924 111.823C133.749 112.059 133.534 112.258 133.281 112.42C133.031 112.582 132.699 112.723 132.285 112.844C131.875 112.964 131.339 113.085 130.677 113.207L128.088 113.679L128.051 113.729L131.037 115.945L130.525 116.635L126.472 113.628ZM133.763 119.174C133.394 118.901 133.117 118.582 132.931 118.217C132.745 117.852 132.658 117.476 132.669 117.089C132.681 116.702 132.8 116.339 133.025 116L133.778 116.559C133.592 116.871 133.545 117.21 133.638 117.574C133.734 117.937 133.947 118.241 134.275 118.484C134.538 118.68 134.819 118.792 135.115 118.821C135.414 118.851 135.702 118.802 135.979 118.674C136.259 118.545 136.501 118.343 136.705 118.069C136.913 117.789 137.037 117.494 137.077 117.183C137.12 116.871 137.082 116.572 136.964 116.286C136.845 116.001 136.65 115.755 136.377 115.55C136.182 115.402 135.958 115.282 135.704 115.191C135.452 115.098 135.223 115.05 135.018 115.047L134.356 114.419L137.093 111.547L140.43 114.024L139.918 114.714L137.233 112.721L135.6 114.448L135.637 114.475C135.847 114.469 136.077 114.505 136.326 114.583C136.576 114.661 136.809 114.781 137.024 114.94C137.418 115.232 137.698 115.586 137.866 116.002C138.037 116.418 138.09 116.853 138.025 117.308C137.962 117.763 137.776 118.199 137.467 118.615C137.163 119.025 136.799 119.323 136.376 119.508C135.956 119.693 135.517 119.76 135.059 119.708C134.603 119.655 134.17 119.477 133.763 119.174Z" fill="black"/>
    <rect x="208.999" y="170.39" width="63.2582" height="63.2205" rx="31.6103" stroke="black" stroke-width="4"/>
    <rect x="231.021" y="238.205" width="19.8082" height="19.7949" rx="9.89744" stroke="black" stroke-width="4"/>
    <path d="M238.133 250.564V249.768L241.649 244.205H242.227V245.439H241.836L239.18 249.643V249.705H243.914V250.564H238.133ZM241.899 252.205V250.322V249.951V244.205H242.821V252.205H241.899Z" fill="black"/>
    <rect x="2.7838" y="0.50463" width="19.8039" height="19.7992" rx="9.8996" transform="matrix(0.822041 -0.569428 0.569859 0.821742 251.252 238.347)" stroke="black" stroke-width="4"/>
    <path d="M270.112 243.06C269.689 243.354 269.26 243.543 268.828 243.627C268.397 243.71 267.994 243.689 267.62 243.565C267.246 243.438 266.932 243.208 266.675 242.875L267.485 242.314C267.649 242.514 267.848 242.647 268.084 242.712C268.317 242.775 268.567 242.776 268.833 242.716C269.098 242.656 269.357 242.538 269.61 242.363C269.892 242.167 270.109 241.944 270.259 241.695C270.409 241.445 270.485 241.19 270.488 240.928C270.49 240.667 270.411 240.42 270.251 240.189C270.083 239.947 269.876 239.776 269.628 239.675C269.379 239.572 269.103 239.548 268.799 239.603C268.495 239.658 268.176 239.802 267.842 240.033L267.315 240.398L266.826 239.692L267.352 239.327C267.614 239.146 267.81 238.94 267.942 238.71C268.075 238.478 268.139 238.237 268.131 237.989C268.126 237.739 268.043 237.499 267.883 237.268C267.729 237.045 267.545 236.886 267.332 236.789C267.119 236.693 266.891 236.661 266.648 236.693C266.406 236.724 266.164 236.823 265.923 236.991C265.696 237.148 265.511 237.338 265.367 237.561C265.224 237.78 265.144 238.012 265.126 238.255C265.107 238.497 265.167 238.731 265.308 238.956L264.537 239.49C264.311 239.137 264.206 238.763 264.221 238.369C264.235 237.973 264.349 237.593 264.562 237.23C264.778 236.865 265.076 236.551 265.455 236.289C265.861 236.007 266.267 235.848 266.673 235.811C267.077 235.772 267.45 235.832 267.791 235.991C268.133 236.15 268.412 236.385 268.627 236.695C268.884 237.066 269.005 237.449 268.991 237.845C268.98 238.239 268.843 238.602 268.581 238.932L268.616 238.984C269.079 238.764 269.526 238.716 269.957 238.839C270.386 238.96 270.745 239.229 271.035 239.646C271.282 240.004 271.408 240.392 271.41 240.812C271.413 241.228 271.304 241.633 271.083 242.027C270.862 242.421 270.538 242.765 270.112 243.06Z" fill="black"/>
    <rect x="1.31318" y="2.5046" width="19.807" height="19.7961" rx="9.89803" transform="matrix(0.954643 0.297751 -0.298056 0.954549 277.989 201.425)" stroke="black" stroke-width="4"/>
    <path d="M281.959 219.952L282.168 219.281L285.551 217.308C285.947 217.077 286.279 216.873 286.545 216.694C286.811 216.512 287.024 216.33 287.182 216.148C287.343 215.963 287.46 215.754 287.533 215.521C287.617 215.252 287.625 215 287.557 214.763C287.491 214.527 287.365 214.321 287.177 214.145C286.989 213.969 286.757 213.838 286.481 213.752C286.188 213.661 285.912 213.642 285.656 213.695C285.402 213.747 285.182 213.863 284.995 214.042C284.811 214.221 284.673 214.457 284.582 214.748L283.702 214.473C283.842 214.026 284.068 213.665 284.38 213.391C284.692 213.118 285.055 212.942 285.469 212.864C285.886 212.787 286.317 212.817 286.762 212.956C287.21 213.096 287.577 213.314 287.863 213.61C288.15 213.907 288.341 214.246 288.438 214.628C288.534 215.01 288.521 215.398 288.398 215.79C288.31 216.071 288.174 216.33 287.988 216.567C287.805 216.802 287.539 217.045 287.188 217.295C286.84 217.544 286.374 217.835 285.789 218.168L283.501 219.468L283.483 219.528L287.033 220.635L286.777 221.455L281.959 219.952Z" fill="black"/>
    <rect x="2.51295" y="1.2991" width="19.807" height="19.7961" rx="9.89805" transform="matrix(0.952908 -0.303259 0.303568 0.95281 269.814 181.192)" stroke="black" stroke-width="4"/>
    <path d="M284.987 184.023L287.415 191.646L286.492 191.94L284.372 185.285L284.327 185.299L282.86 187.127L282.561 186.189L284.064 184.317L284.987 184.023Z" fill="black"/>
    <rect x="0.143707" y="2.82398" width="19.8022" height="19.8009" rx="9.90043" transform="matrix(0.742317 0.670049 -0.670463 0.741943 269.549 148.818)" stroke="black" stroke-width="4"/>
    <path d="M269.415 160.585L264.052 166.52L263.333 165.871L268.015 160.689L267.981 160.658L265.661 160.311L266.321 159.581L268.696 159.936L269.415 160.585ZM267.623 169.891C267.186 169.497 266.922 169.042 266.829 168.527C266.738 168.01 266.817 167.451 267.065 166.851C267.314 166.248 267.731 165.624 268.314 164.979C268.894 164.337 269.47 163.863 270.042 163.555C270.619 163.248 271.169 163.113 271.693 163.151C272.22 163.188 272.701 163.403 273.134 163.794C273.567 164.184 273.828 164.639 273.917 165.158C274.01 165.677 273.931 166.238 273.682 166.84C273.436 167.443 273.023 168.065 272.443 168.706C271.86 169.351 271.281 169.829 270.707 170.138C270.134 170.446 269.586 170.58 269.062 170.543C268.54 170.503 268.06 170.286 267.623 169.891ZM268.199 169.254C268.632 169.645 269.157 169.74 269.774 169.539C270.391 169.338 271.049 168.851 271.747 168.078C272.212 167.564 272.552 167.077 272.768 166.616C272.986 166.157 273.079 165.74 273.045 165.366C273.013 164.993 272.854 164.678 272.568 164.42C272.139 164.032 271.612 163.941 270.988 164.146C270.366 164.349 269.706 164.836 269.01 165.607C268.545 166.121 268.205 166.607 267.988 167.064C267.772 167.521 267.68 167.935 267.714 168.305C267.75 168.678 267.911 168.994 268.199 169.254Z" fill="black"/>
    <rect x="231.021" y="146" width="19.8082" height="19.7949" rx="9.89744" stroke="black" stroke-width="4"/>
    <path d="M241.464 151.891C241.792 151.893 242.12 151.956 242.448 152.078C242.777 152.201 243.076 152.404 243.347 152.687C243.618 152.969 243.835 153.353 243.999 153.84C244.163 154.327 244.245 154.937 244.245 155.672C244.245 156.383 244.178 157.014 244.042 157.566C243.909 158.116 243.717 158.579 243.464 158.957C243.214 159.335 242.909 159.621 242.55 159.816C242.193 160.012 241.79 160.109 241.339 160.109C240.891 160.109 240.491 160.021 240.14 159.844C239.791 159.664 239.504 159.415 239.28 159.098C239.059 158.777 238.917 158.406 238.855 157.984H239.808C239.894 158.352 240.064 158.655 240.32 158.895C240.577 159.132 240.917 159.25 241.339 159.25C241.956 159.25 242.443 158.98 242.8 158.441C243.159 157.902 243.339 157.141 243.339 156.156H243.277C243.131 156.375 242.958 156.564 242.757 156.723C242.557 156.882 242.334 157.004 242.089 157.09C241.844 157.176 241.584 157.219 241.308 157.219C240.849 157.219 240.429 157.105 240.046 156.879C239.666 156.65 239.361 156.336 239.132 155.937C238.905 155.536 238.792 155.078 238.792 154.562C238.792 154.073 238.902 153.625 239.12 153.219C239.342 152.81 239.652 152.484 240.05 152.242C240.451 152 240.922 151.883 241.464 151.891ZM241.464 152.75C241.136 152.75 240.84 152.832 240.577 152.996C240.317 153.158 240.11 153.376 239.956 153.652C239.805 153.926 239.73 154.229 239.73 154.562C239.73 154.896 239.803 155.199 239.948 155.473C240.097 155.743 240.299 155.96 240.554 156.121C240.812 156.28 241.105 156.359 241.433 156.359C241.68 156.359 241.911 156.311 242.124 156.215C242.338 156.116 242.524 155.982 242.683 155.812C242.844 155.641 242.971 155.447 243.062 155.23C243.153 155.012 243.198 154.784 243.198 154.547C243.198 154.234 243.123 153.941 242.972 153.668C242.823 153.395 242.618 153.173 242.355 153.004C242.094 152.835 241.797 152.75 241.464 152.75Z" fill="black"/>
    <rect x="2.79149" y="0.460247" width="19.8037" height="19.7994" rx="9.8997" transform="matrix(0.812873 -0.582441 0.582872 0.812564 197.134 163.74)" stroke="black" stroke-width="4"/>
    <path d="M216.432 167.837C215.996 168.149 215.555 168.348 215.11 168.433C214.665 168.515 214.252 168.486 213.87 168.346C213.486 168.205 213.169 167.958 212.92 167.605C212.72 167.331 212.592 167.039 212.535 166.727C212.477 166.413 212.487 166.11 212.565 165.817C212.644 165.52 212.786 165.265 212.993 165.053L212.966 165.015C212.597 165.158 212.224 165.161 211.847 165.024C211.469 164.885 211.157 164.642 210.911 164.296C210.672 163.967 210.544 163.612 210.527 163.231C210.51 162.849 210.595 162.477 210.784 162.114C210.975 161.75 211.26 161.432 211.641 161.159C212.018 160.889 212.409 160.723 212.813 160.66C213.217 160.598 213.597 160.637 213.953 160.776C214.311 160.913 214.61 161.146 214.849 161.475C215.094 161.821 215.221 162.196 215.229 162.601C215.237 163.001 215.118 163.351 214.871 163.65L214.898 163.688C215.164 163.562 215.447 163.511 215.75 163.535C216.05 163.556 216.341 163.644 216.622 163.799C216.901 163.951 217.14 164.164 217.34 164.438C217.589 164.791 217.719 165.172 217.728 165.582C217.737 165.988 217.632 166.389 217.412 166.784C217.193 167.175 216.866 167.526 216.432 167.837ZM215.931 167.139C216.225 166.928 216.445 166.698 216.591 166.45C216.736 166.201 216.805 165.949 216.797 165.692C216.789 165.435 216.702 165.189 216.537 164.955C216.359 164.711 216.14 164.539 215.88 164.441C215.62 164.342 215.344 164.316 215.05 164.363C214.759 164.408 214.476 164.529 214.201 164.726C213.923 164.925 213.714 165.156 213.574 165.42C213.435 165.683 213.371 165.953 213.381 166.231C213.394 166.507 213.489 166.768 213.667 167.012C213.832 167.246 214.034 167.409 214.272 167.5C214.513 167.59 214.776 167.606 215.06 167.546C215.344 167.487 215.635 167.351 215.931 167.139ZM213.718 164.053C213.951 163.886 214.124 163.692 214.237 163.47C214.352 163.246 214.402 163.014 214.386 162.772C214.369 162.531 214.282 162.297 214.123 162.071C213.963 161.853 213.774 161.699 213.555 161.608C213.335 161.516 213.104 161.49 212.86 161.53C212.615 161.568 212.372 161.673 212.133 161.844C211.89 162.019 211.71 162.217 211.593 162.438C211.475 162.657 211.425 162.885 211.444 163.121C211.461 163.356 211.55 163.582 211.71 163.801C211.869 164.026 212.059 164.186 212.28 164.281C212.504 164.374 212.74 164.401 212.989 164.364C213.238 164.327 213.481 164.223 213.718 164.053Z" fill="black"/>
    <rect x="1.18103" y="2.56948" width="19.8066" height="19.7965" rx="9.89824" transform="matrix(0.937864 0.347004 -0.347346 0.937737 191.231 172.304)" stroke="black" stroke-width="4"/>
    <path d="M194.496 191.179L200.31 185.783L200.332 185.724L196.463 184.293L196.762 183.487L201.568 185.265L201.253 186.115L195.448 191.531L194.496 191.179Z" fill="black"/>
    <rect x="2.54903" y="1.22689" width="19.8068" height="19.7963" rx="9.89816" transform="matrix(0.943872 -0.330312 0.330642 0.943756 181.737 209.883)" stroke="black" stroke-width="4"/>
    <path d="M199.174 220.029C198.863 220.132 198.532 220.182 198.183 220.177C197.834 220.172 197.484 220.081 197.135 219.903C196.784 219.722 196.451 219.428 196.135 219.023C195.819 218.615 195.538 218.062 195.294 217.364C195.059 216.696 194.915 216.082 194.859 215.522C194.803 214.959 194.832 214.459 194.946 214.022C195.06 213.582 195.253 213.211 195.525 212.909C195.799 212.606 196.149 212.38 196.575 212.231C196.997 212.083 197.403 212.036 197.792 212.091C198.182 212.142 198.535 212.281 198.849 212.507C199.163 212.734 199.419 213.032 199.617 213.401L198.717 213.716C198.515 213.406 198.254 213.182 197.935 213.042C197.616 212.903 197.257 212.903 196.859 213.042C196.274 213.247 195.902 213.663 195.744 214.289C195.587 214.915 195.669 215.688 195.989 216.608L196.048 216.587C196.112 216.33 196.213 216.095 196.351 215.881C196.49 215.664 196.661 215.475 196.864 215.313C197.066 215.151 197.297 215.024 197.555 214.934C197.987 214.783 198.421 214.752 198.856 214.843C199.289 214.931 199.681 215.127 200.03 215.43C200.378 215.73 200.637 216.123 200.807 216.61C200.971 217.077 201.016 217.541 200.944 218.003C200.87 218.462 200.684 218.872 200.385 219.233C200.088 219.59 199.685 219.856 199.174 220.029ZM198.89 219.218C199.2 219.11 199.45 218.935 199.642 218.694C199.836 218.452 199.959 218.176 200.01 217.866C200.064 217.555 200.034 217.239 199.923 216.92C199.813 216.608 199.644 216.348 199.414 216.142C199.186 215.932 198.924 215.793 198.627 215.726C198.333 215.658 198.031 215.678 197.721 215.786C197.487 215.868 197.286 215.991 197.117 216.155C196.948 216.316 196.815 216.504 196.718 216.717C196.624 216.929 196.57 217.153 196.557 217.39C196.542 217.624 196.574 217.854 196.654 218.08C196.759 218.38 196.927 218.636 197.158 218.847C197.392 219.058 197.66 219.2 197.962 219.274C198.266 219.347 198.575 219.328 198.89 219.218Z" fill="black"/>
    <rect x="0.413453" y="2.79728" width="19.8035" height="19.7996" rx="9.89981" transform="matrix(0.803058 0.595901 -0.596332 0.802738 212.822 223.424)" stroke="black" stroke-width="4"/>
    <path d="M211.49 243.488C211.122 243.215 210.845 242.896 210.658 242.531C210.472 242.165 210.385 241.789 210.397 241.402C210.408 241.015 210.527 240.653 210.753 240.314L211.505 240.873C211.319 241.185 211.272 241.523 211.365 241.887C211.461 242.251 211.674 242.554 212.002 242.798C212.266 242.994 212.546 243.106 212.842 243.134C213.141 243.165 213.429 243.116 213.706 242.987C213.987 242.858 214.229 242.657 214.432 242.383C214.64 242.103 214.764 241.807 214.804 241.496C214.847 241.185 214.809 240.886 214.691 240.6C214.572 240.314 214.377 240.069 214.104 239.863C213.909 239.715 213.685 239.596 213.431 239.505C213.179 239.412 212.951 239.364 212.745 239.361L212.083 238.733L214.82 235.861L218.158 238.338L217.645 239.027L214.96 237.035L213.327 238.761L213.365 238.789C213.574 238.782 213.804 238.818 214.054 238.897C214.304 238.975 214.536 239.094 214.752 239.254C215.145 239.546 215.425 239.9 215.593 240.316C215.764 240.732 215.817 241.167 215.752 241.621C215.689 242.077 215.503 242.513 215.194 242.929C214.89 243.339 214.526 243.636 214.103 243.822C213.683 244.007 213.245 244.073 212.786 244.022C212.33 243.969 211.898 243.791 211.49 243.488Z" fill="black"/>
    <path d="M446 3H580.5V360.5H324.5V279.5H3V3H393" stroke="black" stroke-width="6" stroke-linecap="round" stroke-linejoin="round"/>
    <rect x="414.013" y="265.506" width="75.4564" height="39.5647" rx="6" transform="rotate(-0.374213 414.013 265.506)" stroke="black" stroke-width="4"/>
    <rect x="1.30885" y="2.50821" width="19.8039" height="19.7992" rx="9.8996" transform="matrix(0.953936 0.30001 -0.299509 0.954093 432.22 309.122)" stroke="black" stroke-width="4"/>
    <rect x="-1.17275" y="2.57334" width="19.807" height="19.7961" rx="9.89803" transform="matrix(0.350353 0.936618 -0.936729 0.350054 476.709 311.368)" stroke="black" stroke-width="4"/>
    <path d="M410.966 132.017V130.455H421.875V132.017H417.301V145H415.54V132.017H410.966ZM426.092 145.256C425.401 145.256 424.773 145.125 424.21 144.865C423.646 144.6 423.199 144.219 422.867 143.722C422.536 143.22 422.37 142.614 422.37 141.903C422.37 141.278 422.493 140.772 422.74 140.384C422.986 139.991 423.315 139.683 423.727 139.46C424.139 139.238 424.593 139.072 425.09 138.963C425.592 138.849 426.097 138.759 426.603 138.693C427.266 138.608 427.804 138.544 428.215 138.501C428.632 138.454 428.935 138.376 429.125 138.267C429.319 138.158 429.416 137.969 429.416 137.699V137.642C429.416 136.941 429.224 136.397 428.84 136.009C428.462 135.62 427.886 135.426 427.115 135.426C426.314 135.426 425.687 135.601 425.233 135.952C424.778 136.302 424.458 136.676 424.274 137.074L422.683 136.506C422.967 135.843 423.346 135.327 423.819 134.957C424.297 134.583 424.818 134.323 425.382 134.176C425.95 134.025 426.509 133.949 427.058 133.949C427.408 133.949 427.811 133.991 428.265 134.077C428.724 134.157 429.167 134.325 429.593 134.581C430.024 134.837 430.382 135.223 430.666 135.739C430.95 136.255 431.092 136.946 431.092 137.812V145H429.416V143.523H429.331C429.217 143.759 429.028 144.013 428.762 144.283C428.497 144.553 428.144 144.782 427.704 144.972C427.264 145.161 426.726 145.256 426.092 145.256ZM426.348 143.75C427.01 143.75 427.569 143.62 428.024 143.359C428.483 143.099 428.829 142.763 429.061 142.351C429.297 141.939 429.416 141.506 429.416 141.051V139.517C429.345 139.602 429.188 139.68 428.947 139.751C428.71 139.818 428.436 139.877 428.123 139.929C427.815 139.976 427.515 140.019 427.221 140.057C426.932 140.09 426.698 140.118 426.518 140.142C426.082 140.199 425.675 140.291 425.296 140.419C424.922 140.542 424.619 140.729 424.387 140.98C424.16 141.226 424.046 141.562 424.046 141.989C424.046 142.571 424.262 143.011 424.693 143.31C425.128 143.603 425.68 143.75 426.348 143.75ZM441.452 138.778V140.341H435.43V138.778H441.452ZM435.827 134.091V145H434.151V134.091H435.827ZM442.731 134.091V145H441.055V134.091H442.731ZM454.371 134.091V143.438H455.905V148.523H454.229V145H445.792V134.091H447.468V143.438H452.695V134.091H454.371ZM458.487 145V134.091H467.067V145H465.391V135.653H460.163V145H458.487ZM474.56 145.227C473.575 145.227 472.711 144.993 471.967 144.524C471.229 144.055 470.651 143.4 470.234 142.557C469.822 141.714 469.616 140.729 469.616 139.602C469.616 138.466 469.822 137.474 470.234 136.626C470.651 135.779 471.229 135.121 471.967 134.652C472.711 134.183 473.575 133.949 474.56 133.949C475.544 133.949 476.406 134.183 477.145 134.652C477.888 135.121 478.466 135.779 478.878 136.626C479.294 137.474 479.503 138.466 479.503 139.602C479.503 140.729 479.294 141.714 478.878 142.557C478.466 143.4 477.888 144.055 477.145 144.524C476.406 144.993 475.544 145.227 474.56 145.227ZM474.56 143.722C475.308 143.722 475.923 143.53 476.406 143.146C476.889 142.763 477.247 142.259 477.479 141.634C477.711 141.009 477.827 140.331 477.827 139.602C477.827 138.873 477.711 138.194 477.479 137.564C477.247 136.934 476.889 136.425 476.406 136.037C475.923 135.649 475.308 135.455 474.56 135.455C473.811 135.455 473.196 135.649 472.713 136.037C472.23 136.425 471.873 136.934 471.641 137.564C471.409 138.194 471.293 138.873 471.293 139.602C471.293 140.331 471.409 141.009 471.641 141.634C471.873 142.259 472.23 142.763 472.713 143.146C473.196 143.53 473.811 143.722 474.56 143.722ZM481.095 145V143.438H481.493C481.82 143.438 482.092 143.374 482.31 143.246C482.528 143.113 482.703 142.884 482.836 142.557C482.973 142.225 483.077 141.766 483.148 141.179C483.224 140.587 483.278 139.834 483.311 138.92L483.51 134.091H490.783V145H489.107V135.653H485.101L484.931 139.545C484.893 140.44 484.812 141.229 484.689 141.911C484.571 142.588 484.389 143.156 484.142 143.615C483.901 144.074 483.579 144.42 483.176 144.652C482.774 144.884 482.27 145 481.664 145H481.095Z" fill="black"/>
    <path d="M499.417 31.1364C498.804 31.1364 498.275 30.9915 497.832 30.7017C497.389 30.4119 497.048 30.0128 496.809 29.5043C496.571 28.9957 496.452 28.4148 496.452 27.7614C496.452 27.0966 496.574 26.5099 496.818 26.0014C497.065 25.4901 497.409 25.0909 497.849 24.804C498.292 24.5142 498.809 24.3693 499.4 24.3693C499.861 24.3693 500.275 24.4545 500.645 24.625C501.014 24.7955 501.317 25.0341 501.552 25.3409C501.788 25.6477 501.934 26.0057 501.991 26.4148H500.986C500.909 26.1165 500.738 25.8523 500.474 25.6222C500.213 25.3892 499.861 25.2727 499.417 25.2727C499.025 25.2727 498.682 25.375 498.386 25.5795C498.094 25.7812 497.865 26.0668 497.7 26.4361C497.538 26.8026 497.457 27.233 497.457 27.7273C497.457 28.233 497.537 28.6733 497.696 29.0483C497.858 29.4233 498.085 29.7145 498.378 29.9219C498.673 30.1293 499.02 30.233 499.417 30.233C499.679 30.233 499.916 30.1875 500.129 30.0966C500.342 30.0057 500.523 29.875 500.67 29.7045C500.818 29.5341 500.923 29.3295 500.986 29.0909H501.991C501.934 29.4773 501.794 29.8253 501.569 30.1349C501.348 30.4418 501.054 30.6861 500.687 30.8679C500.324 31.0469 499.9 31.1364 499.417 31.1364ZM502.946 25.392V24.4545H508.264V25.392H506.116V31H505.111V25.392H502.946ZM512.05 31.1364C511.459 31.1364 510.941 30.9957 510.495 30.7145C510.052 30.4332 509.705 30.0398 509.455 29.5341C509.208 29.0284 509.084 28.4375 509.084 27.7614C509.084 27.0795 509.208 26.4844 509.455 25.9759C509.705 25.4673 510.052 25.0724 510.495 24.7912C510.941 24.5099 511.459 24.3693 512.05 24.3693C512.641 24.3693 513.158 24.5099 513.601 24.7912C514.047 25.0724 514.394 25.4673 514.641 25.9759C514.891 26.4844 515.016 27.0795 515.016 27.7614C515.016 28.4375 514.891 29.0284 514.641 29.5341C514.394 30.0398 514.047 30.4332 513.601 30.7145C513.158 30.9957 512.641 31.1364 512.05 31.1364ZM512.05 30.233C512.499 30.233 512.868 30.1179 513.158 29.8878C513.448 29.6577 513.662 29.3551 513.802 28.9801C513.941 28.6051 514.01 28.1989 514.01 27.7614C514.01 27.3239 513.941 26.9162 513.802 26.5384C513.662 26.1605 513.448 25.8551 513.158 25.6222C512.868 25.3892 512.499 25.2727 512.05 25.2727C511.601 25.2727 511.232 25.3892 510.942 25.6222C510.653 25.8551 510.438 26.1605 510.299 26.5384C510.16 26.9162 510.09 27.3239 510.09 27.7614C510.09 28.1989 510.16 28.6051 510.299 28.9801C510.438 29.3551 510.653 29.6577 510.942 29.8878C511.232 30.1179 511.601 30.233 512.05 30.233ZM515.972 31V30.0625H516.21C516.406 30.0625 516.57 30.0241 516.7 29.9474C516.831 29.8679 516.936 29.7301 517.016 29.5341C517.098 29.3352 517.161 29.0597 517.203 28.7074C517.249 28.3523 517.281 27.9006 517.301 27.3523L517.421 24.4545H521.784V31H520.779V25.392H518.375L518.273 27.7273C518.25 28.2642 518.202 28.7372 518.128 29.1463C518.057 29.5526 517.948 29.8935 517.8 30.169C517.655 30.4446 517.462 30.652 517.22 30.7912C516.979 30.9304 516.676 31 516.313 31H515.972ZM529.664 31.1364C529.05 31.1364 528.521 30.9915 528.078 30.7017C527.635 30.4119 527.294 30.0128 527.056 29.5043C526.817 28.9957 526.698 28.4148 526.698 27.7614C526.698 27.0966 526.82 26.5099 527.064 26.0014C527.311 25.4901 527.655 25.0909 528.095 24.804C528.539 24.5142 529.056 24.3693 529.646 24.3693C530.107 24.3693 530.521 24.4545 530.891 24.625C531.26 24.7955 531.563 25.0341 531.798 25.3409C532.034 25.6477 532.181 26.0057 532.237 26.4148H531.232C531.155 26.1165 530.985 25.8523 530.72 25.6222C530.459 25.3892 530.107 25.2727 529.664 25.2727C529.271 25.2727 528.928 25.375 528.632 25.5795C528.34 25.7812 528.111 26.0668 527.946 26.4361C527.784 26.8026 527.703 27.233 527.703 27.7273C527.703 28.233 527.783 28.6733 527.942 29.0483C528.104 29.4233 528.331 29.7145 528.624 29.9219C528.919 30.1293 529.266 30.233 529.664 30.233C529.925 30.233 530.162 30.1875 530.375 30.0966C530.588 30.0057 530.769 29.875 530.916 29.7045C531.064 29.5341 531.169 29.3295 531.232 29.0909H532.237C532.181 29.4773 532.04 29.8253 531.816 30.1349C531.594 30.4418 531.3 30.6861 530.933 30.8679C530.57 31.0469 530.146 31.1364 529.664 31.1364ZM477.081 46.1534C476.666 46.1534 476.29 46.0753 475.952 45.919C475.614 45.7599 475.345 45.5312 475.146 45.233C474.947 44.9318 474.848 44.5682 474.848 44.142C474.848 43.767 474.922 43.4631 475.07 43.2301C475.217 42.9943 475.415 42.8097 475.662 42.6761C475.909 42.5426 476.182 42.4432 476.48 42.3778C476.781 42.3097 477.084 42.2557 477.388 42.2159C477.786 42.1648 478.108 42.1264 478.355 42.1009C478.605 42.0724 478.787 42.0256 478.901 41.9602C479.017 41.8949 479.075 41.7812 479.075 41.6193V41.5852C479.075 41.1648 478.96 40.8381 478.73 40.6051C478.503 40.3722 478.158 40.2557 477.695 40.2557C477.214 40.2557 476.838 40.3608 476.565 40.571C476.293 40.7812 476.101 41.0057 475.99 41.2443L475.036 40.9034C475.206 40.5057 475.433 40.196 475.717 39.9744C476.004 39.75 476.317 39.5937 476.655 39.5057C476.996 39.4148 477.331 39.3693 477.661 39.3693C477.871 39.3693 478.112 39.3949 478.385 39.446C478.661 39.4943 478.926 39.5952 479.182 39.7486C479.44 39.902 479.655 40.1335 479.825 40.4432C479.996 40.7528 480.081 41.1676 480.081 41.6875V46H479.075V45.1136H479.024C478.956 45.2557 478.842 45.4077 478.683 45.5696C478.524 45.7315 478.313 45.8693 478.048 45.983C477.784 46.0966 477.462 46.1534 477.081 46.1534ZM477.234 45.25C477.632 45.25 477.967 45.1719 478.24 45.0156C478.516 44.8594 478.723 44.6577 478.862 44.4105C479.004 44.1634 479.075 43.9034 479.075 43.6307V42.7102C479.033 42.7614 478.939 42.8082 478.794 42.8509C478.652 42.8906 478.487 42.9261 478.3 42.9574C478.115 42.9858 477.935 43.0114 477.759 43.0341C477.585 43.054 477.445 43.071 477.337 43.0852C477.075 43.1193 476.831 43.1747 476.604 43.2514C476.379 43.3253 476.197 43.4375 476.058 43.5881C475.922 43.7358 475.854 43.9375 475.854 44.1932C475.854 44.5426 475.983 44.8068 476.241 44.9858C476.503 45.1619 476.834 45.25 477.234 45.25ZM481.917 46V39.4545H482.922V42.3011H483.587L485.939 39.4545H487.235L484.593 42.608L487.269 46H485.973L483.826 43.2386H482.922V46H481.917ZM487.987 40.392V39.4545H493.305V40.392H491.157V46H490.152V40.392H487.987ZM495.778 44.517L498.931 39.4545H500.09V46H499.085V40.9375L495.948 46H494.772V39.4545H495.778V44.517ZM501.932 46V39.4545H504.608C505.313 39.4545 505.873 39.6136 506.287 39.9318C506.702 40.25 506.909 40.6705 506.909 41.1932C506.909 41.5909 506.792 41.8991 506.556 42.1179C506.32 42.3338 506.017 42.4801 505.648 42.5568C505.89 42.5909 506.124 42.6761 506.351 42.8125C506.581 42.9489 506.772 43.1364 506.922 43.375C507.073 43.6108 507.148 43.9006 507.148 44.2443C507.148 44.5795 507.063 44.8793 506.892 45.1435C506.722 45.4077 506.478 45.6165 506.159 45.7699C505.841 45.9233 505.461 46 505.017 46H501.932ZM502.887 45.0795H505.017C505.364 45.0795 505.635 44.9972 505.831 44.8324C506.027 44.6676 506.125 44.4432 506.125 44.1591C506.125 43.821 506.027 43.5554 505.831 43.3622C505.635 43.1662 505.364 43.0682 505.017 43.0682H502.887V45.0795ZM502.887 42.1989H504.608C504.878 42.1989 505.11 42.1619 505.303 42.0881C505.496 42.0114 505.644 41.9034 505.746 41.7642C505.851 41.6222 505.904 41.4545 505.904 41.2614C505.904 40.9858 505.789 40.7699 505.559 40.6136C505.328 40.4545 505.012 40.375 504.608 40.375H502.887V42.1989ZM513.051 42.267V43.2045H509.438V42.267H513.051ZM509.676 39.4545V46H508.67V39.4545H509.676ZM513.818 39.4545V46H512.812V39.4545H513.818ZM518.314 46.1364C517.723 46.1364 517.205 45.9957 516.759 45.7145C516.315 45.4332 515.969 45.0398 515.719 44.5341C515.472 44.0284 515.348 43.4375 515.348 42.7614C515.348 42.0795 515.472 41.4844 515.719 40.9759C515.969 40.4673 516.315 40.0724 516.759 39.7912C517.205 39.5099 517.723 39.3693 518.314 39.3693C518.905 39.3693 519.422 39.5099 519.865 39.7912C520.311 40.0724 520.658 40.4673 520.905 40.9759C521.155 41.4844 521.28 42.0795 521.28 42.7614C521.28 43.4375 521.155 44.0284 520.905 44.5341C520.658 45.0398 520.311 45.4332 519.865 45.7145C519.422 45.9957 518.905 46.1364 518.314 46.1364ZM518.314 45.233C518.763 45.233 519.132 45.1179 519.422 44.8878C519.712 44.6577 519.926 44.3551 520.065 43.9801C520.205 43.6051 520.274 43.1989 520.274 42.7614C520.274 42.3239 520.205 41.9162 520.065 41.5384C519.926 41.1605 519.712 40.8551 519.422 40.6222C519.132 40.3892 518.763 40.2727 518.314 40.2727C517.865 40.2727 517.496 40.3892 517.206 40.6222C516.916 40.8551 516.702 41.1605 516.562 41.5384C516.423 41.9162 516.354 42.3239 516.354 42.7614C516.354 43.1989 516.423 43.6051 516.562 43.9801C516.702 44.3551 516.916 44.6577 517.206 44.8878C517.496 45.1179 517.865 45.233 518.314 45.233ZM525.474 46.1364C524.86 46.1364 524.332 45.9915 523.889 45.7017C523.446 45.4119 523.105 45.0128 522.866 44.5043C522.627 43.9957 522.508 43.4148 522.508 42.7614C522.508 42.0966 522.63 41.5099 522.875 41.0014C523.122 40.4901 523.466 40.0909 523.906 39.804C524.349 39.5142 524.866 39.3693 525.457 39.3693C525.917 39.3693 526.332 39.4545 526.701 39.625C527.071 39.7955 527.373 40.0341 527.609 40.3409C527.845 40.6477 527.991 41.0057 528.048 41.4148H527.042C526.966 41.1165 526.795 40.8523 526.531 40.6222C526.27 40.3892 525.917 40.2727 525.474 40.2727C525.082 40.2727 524.738 40.375 524.443 40.5795C524.15 40.7812 523.922 41.0668 523.757 41.4361C523.595 41.8026 523.514 42.233 523.514 42.7273C523.514 43.233 523.593 43.6733 523.752 44.0483C523.914 44.4233 524.142 44.7145 524.434 44.9219C524.73 45.1293 525.076 45.233 525.474 45.233C525.735 45.233 525.973 45.1875 526.186 45.0966C526.399 45.0057 526.579 44.875 526.727 44.7045C526.875 44.5341 526.98 44.3295 527.042 44.0909H528.048C527.991 44.4773 527.85 44.8253 527.626 45.1349C527.404 45.4418 527.11 45.6861 526.744 45.8679C526.38 46.0469 525.957 46.1364 525.474 46.1364ZM529.002 40.392V39.4545H534.321V40.392H532.173V46H531.167V40.392H529.002ZM539.725 46V40.375H537.987C537.594 40.375 537.286 40.4659 537.062 40.6477C536.837 40.8295 536.725 41.0795 536.725 41.3977C536.725 41.7102 536.826 41.956 537.028 42.1349C537.232 42.3139 537.512 42.4034 537.867 42.4034H539.981V43.3409H537.867C537.424 43.3409 537.042 43.2628 536.721 43.1065C536.4 42.9503 536.153 42.7273 535.979 42.4375C535.806 42.1449 535.719 41.7983 535.719 41.3977C535.719 40.9943 535.81 40.6477 535.992 40.358C536.174 40.0682 536.434 39.8452 536.772 39.6889C537.113 39.5327 537.518 39.4545 537.987 39.4545H540.68V46H539.725ZM535.362 46L537.219 42.7443H538.31L536.452 46H535.362ZM546.105 44.6364L548.39 39.4545H549.344L546.515 46H545.696L542.918 39.4545H543.855L546.105 44.6364ZM543.532 39.4545V46H542.526V39.4545H543.532ZM548.679 46V39.4545H549.685V46H548.679ZM552.532 44.517L555.685 39.4545H556.844V46H555.838V40.9375L552.702 46H551.526V39.4545H552.532V44.517Z" fill="black"/>
</svg>
